<?xml version="1.0" encoding="UTF-8" standalone="no"?>
<!DOCTYPE svg PUBLIC "-//W3C//DTD SVG 1.1//EN"
 "http://www.w3.org/Graphics/SVG/1.1/DTD/svg11.dtd">
<!-- Generated by graphviz version 2.26.3 (20100126.1600)
 -->
<!-- Title: _anonymous_0 Pages: 1 -->
<svg width="1554pt" height="176pt"
 viewBox="0.00 0.00 1554.00 176.00" xmlns="http://www.w3.org/2000/svg" xmlns:xlink="http://www.w3.org/1999/xlink">
<g id="graph1" class="graph" transform="scale(1 1) rotate(0) translate(4 172)">
<title>_anonymous_0</title>
<polygon fill="white" stroke="white" points="-4,5 -4,-172 1551,-172 1551,5 -4,5"/>
<g id="graph2" class="cluster"><title>cluster_buildings</title>
<polygon fill="none" stroke="black" points="8,-8 8,-160 824,-160 824,-8 8,-8"/>
<text text-anchor="middle" x="416" y="-143.4" font-family="Times Roman,serif" font-size="14.00">Buildings</text>
</g>
<g id="graph3" class="cluster"><title>cluster_fields</title>
<polygon fill="none" stroke="black" points="832,-8 832,-160 1022,-160 1022,-8 832,-8"/>
<text text-anchor="middle" x="927" y="-143.4" font-family="Times Roman,serif" font-size="14.00">Fields</text>
</g>
<g id="graph4" class="cluster"><title>cluster_infrastructure</title>
<polygon fill="none" stroke="black" points="1030,-8 1030,-160 1326,-160 1326,-8 1030,-8"/>
<text text-anchor="middle" x="1178" y="-143.4" font-family="Times Roman,serif" font-size="14.00">Infrastructure</text>
</g>
<g id="graph5" class="cluster"><title>cluster_water</title>
<polygon fill="none" stroke="black" points="1334,-8 1334,-160 1538,-160 1538,-8 1334,-8"/>
<text text-anchor="middle" x="1436" y="-143.4" font-family="Times Roman,serif" font-size="14.00">Waters</text>
</g>
<!-- building -->
<g id="node2" class="node"><title>building</title>
<polygon fill="none" stroke="black" points="437,-52 367,-52 367,-16 437,-16 437,-52"/>
<text text-anchor="middle" x="402" y="-30.4" font-family="Times Roman,serif" font-size="14.00">building</text>
</g>
<!-- apartment complex -->
<g id="node3" class="node"><title>apartment complex</title>
<ellipse fill="none" stroke="black" cx="710" cy="-107" rx="106.066" ry="18.3848"/>
<text text-anchor="middle" x="710" y="-103.4" font-family="Times Roman,serif" font-size="14.00">apartment complex</text>
</g>
<!-- apartment complex&#45;&gt;building -->
<g id="edge6" class="edge"><title>apartment complex&#45;&gt;building</title>
<path fill="none" stroke="black" d="M646.928,-92.0512C587.406,-77.9437 499.65,-57.1442 446.93,-44.6491"/>
<polygon fill="black" stroke="black" points="447.728,-41.2413 437.191,-42.3407 446.114,-48.0526 447.728,-41.2413"/>
</g>
<!-- house -->
<g id="node4" class="node"><title>house</title>
<ellipse fill="none" stroke="black" cx="545" cy="-107" rx="41.0122" ry="18.3848"/>
<text text-anchor="middle" x="545" y="-103.4" font-family="Times Roman,serif" font-size="14.00">house</text>
</g>
<!-- house&#45;&gt;building -->
<g id="edge8" class="edge"><title>house&#45;&gt;building</title>
<path fill="none" stroke="black" d="M517.766,-93.0974C497.592,-82.7988 469.667,-68.5431 446.298,-56.6134"/>
<polygon fill="black" stroke="black" points="447.759,-53.4298 437.261,-52.0003 444.576,-59.6644 447.759,-53.4298"/>
</g>
<!-- store -->
<g id="node5" class="node"><title>store</title>
<ellipse fill="none" stroke="black" cx="450" cy="-107" rx="36.0624" ry="18.3848"/>
<text text-anchor="middle" x="450" y="-103.4" font-family="Times Roman,serif" font-size="14.00">store</text>
</g>
<!-- store&#45;&gt;building -->
<g id="edge10" class="edge"><title>store&#45;&gt;building</title>
<path fill="none" stroke="black" d="M438.381,-89.3287C432.687,-80.6706 425.715,-70.0659 419.402,-60.4655"/>
<polygon fill="black" stroke="black" points="422.264,-58.4483 413.846,-52.0157 416.416,-62.2942 422.264,-58.4483"/>
</g>
<!-- school -->
<g id="node6" class="node"><title>school</title>
<ellipse fill="none" stroke="black" cx="355" cy="-107" rx="41.2167" ry="18.3848"/>
<text text-anchor="middle" x="355" y="-103.4" font-family="Times Roman,serif" font-size="14.00">school</text>
</g>
<!-- school&#45;&gt;building -->
<g id="edge12" class="edge"><title>school&#45;&gt;building</title>
<path fill="none" stroke="black" d="M366.618,-88.9551C372.098,-80.4441 378.747,-70.1165 384.795,-60.7219"/>
<polygon fill="black" stroke="black" points="387.882,-62.3931 390.353,-52.0904 381.997,-58.6037 387.882,-62.3931"/>
</g>
<!-- industry -->
<g id="node7" class="node"><title>industry</title>
<ellipse fill="none" stroke="black" cx="244" cy="-107" rx="51.8276" ry="18.3848"/>
<text text-anchor="middle" x="244" y="-103.4" font-family="Times Roman,serif" font-size="14.00">industry</text>
</g>
<!-- industry&#45;&gt;building -->
<g id="edge14" class="edge"><title>industry&#45;&gt;building</title>
<path fill="none" stroke="black" d="M275.974,-92.2274C299.424,-81.3927 331.566,-66.5421 357.521,-54.5506"/>
<polygon fill="black" stroke="black" points="359.165,-57.6463 366.775,-50.2747 356.229,-51.2918 359.165,-57.6463"/>
</g>
<!-- office building -->
<g id="node8" class="node"><title>office building</title>
<ellipse fill="none" stroke="black" cx="95" cy="-107" rx="79.196" ry="18.3848"/>
<text text-anchor="middle" x="95" y="-103.4" font-family="Times Roman,serif" font-size="14.00">office building</text>
</g>
<!-- office building&#45;&gt;building -->
<g id="edge16" class="edge"><title>office building&#45;&gt;building</title>
<path fill="none" stroke="black" d="M150.595,-93.7803C209.806,-79.7009 302.373,-57.6898 357.124,-44.6708"/>
<polygon fill="black" stroke="black" points="357.972,-48.0669 366.891,-42.3485 356.352,-41.2568 357.972,-48.0669"/>
</g>
<!-- park -->
<g id="node10" class="node"><title>park</title>
<ellipse fill="none" stroke="black" cx="981" cy="-107" rx="33.234" ry="18.3848"/>
<text text-anchor="middle" x="981" y="-103.4" font-family="Times Roman,serif" font-size="14.00">park</text>
</g>
<!-- field -->
<g id="node12" class="node"><title>field</title>
<polygon fill="none" stroke="black" points="960,-52 906,-52 906,-16 960,-16 960,-52"/>
<text text-anchor="middle" x="933" y="-30.4" font-family="Times Roman,serif" font-size="14.00">field</text>
</g>
<!-- park&#45;&gt;field -->
<g id="edge18" class="edge"><title>park&#45;&gt;field</title>
<path fill="none" stroke="black" d="M969.381,-89.3287C963.687,-80.6706 956.715,-70.0659 950.402,-60.4655"/>
<polygon fill="black" stroke="black" points="953.264,-58.4483 944.846,-52.0157 947.416,-62.2942 953.264,-58.4483"/>
</g>
<!-- garden -->
<g id="node11" class="node"><title>garden</title>
<ellipse fill="none" stroke="black" cx="885" cy="-107" rx="44.7575" ry="18.3848"/>
<text text-anchor="middle" x="885" y="-103.4" font-family="Times Roman,serif" font-size="14.00">garden</text>
</g>
<!-- garden&#45;&gt;field -->
<g id="edge20" class="edge"><title>garden&#45;&gt;field</title>
<path fill="none" stroke="black" d="M896.865,-88.9551C902.461,-80.4441 909.252,-70.1165 915.429,-60.7219"/>
<polygon fill="black" stroke="black" points="918.535,-62.3689 921.105,-52.0904 912.686,-58.523 918.535,-62.3689"/>
</g>
<!-- road -->
<g id="node14" class="node"><title>road</title>
<ellipse fill="none" stroke="black" cx="1285" cy="-107" rx="33.234" ry="18.3848"/>
<text text-anchor="middle" x="1285" y="-103.4" font-family="Times Roman,serif" font-size="14.00">road</text>
</g>
<!-- infrastructure -->
<g id="node17" class="node"><title>infrastructure</title>
<polygon fill="none" stroke="black" points="1248,-52 1138,-52 1138,-16 1248,-16 1248,-52"/>
<text text-anchor="middle" x="1193" y="-30.4" font-family="Times Roman,serif" font-size="14.00">infrastructure</text>
</g>
<!-- road&#45;&gt;infrastructure -->
<g id="edge22" class="edge"><title>road&#45;&gt;infrastructure</title>
<path fill="none" stroke="black" d="M1265.94,-91.8744C1253.79,-82.2391 1237.78,-69.5355 1223.86,-58.4855"/>
<polygon fill="black" stroke="black" points="1225.95,-55.6803 1215.94,-52.2062 1221.6,-61.1638 1225.95,-55.6803"/>
</g>
<!-- bridge -->
<g id="node15" class="node"><title>bridge</title>
<ellipse fill="none" stroke="black" cx="1193" cy="-107" rx="41.2167" ry="18.3848"/>
<text text-anchor="middle" x="1193" y="-103.4" font-family="Times Roman,serif" font-size="14.00">bridge</text>
</g>
<!-- bridge&#45;&gt;infrastructure -->
<g id="edge24" class="edge"><title>bridge&#45;&gt;infrastructure</title>
<path fill="none" stroke="black" d="M1193,-88.2007C1193,-80.3319 1193,-71.015 1193,-62.345"/>
<polygon fill="black" stroke="black" points="1196.5,-62.2312 1193,-52.2312 1189.5,-62.2312 1196.5,-62.2312"/>
</g>
<!-- parking -->
<g id="node16" class="node"><title>parking</title>
<ellipse fill="none" stroke="black" cx="1086" cy="-107" rx="48.0833" ry="18.3848"/>
<text text-anchor="middle" x="1086" y="-103.4" font-family="Times Roman,serif" font-size="14.00">parking</text>
</g>
<!-- parking&#45;&gt;infrastructure -->
<g id="edge26" class="edge"><title>parking&#45;&gt;infrastructure</title>
<path fill="none" stroke="black" d="M1109.75,-90.7989C1123.88,-81.1589 1142.07,-68.7489 1157.84,-57.989"/>
<polygon fill="black" stroke="black" points="1160.02,-60.7362 1166.31,-52.2092 1156.08,-54.9538 1160.02,-60.7362"/>
</g>
<!-- stream -->
<g id="node19" class="node"><title>stream</title>
<ellipse fill="none" stroke="black" cx="1485" cy="-107" rx="44.7575" ry="18.3848"/>
<text text-anchor="middle" x="1485" y="-103.4" font-family="Times Roman,serif" font-size="14.00">stream</text>
</g>
<!-- water -->
<g id="node21" class="node"><title>water</title>
<polygon fill="none" stroke="black" points="1462,-52 1404,-52 1404,-16 1462,-16 1462,-52"/>
<text text-anchor="middle" x="1433" y="-30.4" font-family="Times Roman,serif" font-size="14.00">water</text>
</g>
<!-- stream&#45;&gt;water -->
<g id="edge28" class="edge"><title>stream&#45;&gt;water</title>
<path fill="none" stroke="black" d="M1472.15,-88.9551C1466.02,-80.3564 1458.57,-69.9034 1451.83,-60.4316"/>
<polygon fill="black" stroke="black" points="1454.54,-58.2046 1445.89,-52.0904 1448.84,-62.2659 1454.54,-58.2046"/>
</g>
<!-- ocean -->
<g id="node20" class="node"><title>ocean</title>
<ellipse fill="none" stroke="black" cx="1382" cy="-107" rx="39.8075" ry="18.3848"/>
<text text-anchor="middle" x="1382" y="-103.4" font-family="Times Roman,serif" font-size="14.00">ocean</text>
</g>
<!-- ocean&#45;&gt;water -->
<g id="edge30" class="edge"><title>ocean&#45;&gt;water</title>
<path fill="none" stroke="black" d="M1394.35,-89.3287C1400.39,-80.6706 1407.8,-70.0659 1414.51,-60.4655"/>
<polygon fill="black" stroke="black" points="1417.56,-62.2178 1420.41,-52.0157 1411.82,-58.2088 1417.56,-62.2178"/>
</g>
</g>
</svg>
