<?xml version="1.0" encoding="UTF-8" standalone="no"?>
<!DOCTYPE svg PUBLIC "-//W3C//DTD SVG 1.1//EN"
 "http://www.w3.org/Graphics/SVG/1.1/DTD/svg11.dtd">
<!-- Generated by graphviz version 2.26.3 (20100126.1600)
 -->
<!-- Title: _anonymous_0 Pages: 1 -->
<svg width="805pt" height="778pt"
 viewBox="0.00 0.00 805.00 778.00" xmlns="http://www.w3.org/2000/svg" xmlns:xlink="http://www.w3.org/1999/xlink">
<g id="graph1" class="graph" transform="scale(1 1) rotate(0) translate(4 774)">
<title>_anonymous_0</title>
<polygon fill="white" stroke="white" points="-4,5 -4,-774 802,-774 802,5 -4,5"/>
<!-- scavenge -->
<g id="node2" class="node"><title>scavenge</title>
<ellipse fill="none" stroke="black" cx="183" cy="-621" rx="56.0679" ry="18.3848"/>
<text text-anchor="middle" x="183" y="-617.4" font-family="Times Roman,serif" font-size="14.00">scavenge</text>
</g>
<!-- food -->
<g id="node25" class="node"><title>food</title>
<polygon fill="none" stroke="black" points="257.058,-122 238.529,-143.229 201.471,-143.229 182.942,-122 201.471,-100.771 238.529,-100.771 257.058,-122"/>
<text text-anchor="middle" x="220" y="-118.4" font-family="Times Roman,serif" font-size="14.00">food</text>
</g>
<!-- scavenge&#45;&gt;food -->
<g id="edge45" class="edge"><title>scavenge&#45;&gt;food</title>
<path fill="none" stroke="black" d="M183,-602.145C183,-580.062 183,-542.375 183,-510 183,-510 183,-510 183,-212 183,-190.904 191.804,-168.974 200.823,-152.043"/>
<polygon fill="black" stroke="black" points="203.951,-153.621 205.801,-143.189 197.849,-150.191 203.951,-153.621"/>
</g>
<!-- patrol -->
<g id="node3" class="node"><title>patrol</title>
<ellipse fill="none" stroke="black" cx="468" cy="-677" rx="39.8075" ry="18.3848"/>
<text text-anchor="middle" x="468" y="-673.4" font-family="Times Roman,serif" font-size="14.00">patrol</text>
</g>
<!-- plant_turnips -->
<g id="node4" class="node"><title>plant_turnips</title>
<ellipse fill="none" stroke="black" cx="341" cy="-565" rx="75.8684" ry="18.3848"/>
<text text-anchor="middle" x="341" y="-561.4" font-family="Times Roman,serif" font-size="14.00">plant_turnips</text>
</g>
<!-- turnip_field -->
<g id="node17" class="node"><title>turnip_field</title>
<polygon fill="none" stroke="black" points="388,-466 294,-466 294,-430 388,-430 388,-466"/>
<text text-anchor="middle" x="341" y="-444.4" font-family="Times Roman,serif" font-size="14.00">turnip_field</text>
</g>
<!-- plant_turnips&#45;&gt;turnip_field -->
<g id="edge31" class="edge"><title>plant_turnips&#45;&gt;turnip_field</title>
<path fill="none" stroke="black" d="M341,-546.461C341,-527.609 341,-498.152 341,-476.365"/>
<polygon fill="black" stroke="black" points="344.5,-476.068 341,-466.068 337.5,-476.068 344.5,-476.068"/>
</g>
<!-- harvest_turnips -->
<g id="node5" class="node"><title>harvest_turnips</title>
<ellipse fill="none" stroke="black" cx="299" cy="-212" rx="87.889" ry="18.3848"/>
<text text-anchor="middle" x="299" y="-208.4" font-family="Times Roman,serif" font-size="14.00">harvest_turnips</text>
</g>
<!-- field -->
<g id="node16" class="node"><title>field</title>
<polygon fill="none" stroke="black" points="334,-695 280,-695 280,-659 334,-659 334,-695"/>
<text text-anchor="middle" x="307" y="-673.4" font-family="Times Roman,serif" font-size="14.00">field</text>
</g>
<!-- harvest_turnips&#45;&gt;field -->
<g id="edge34" class="edge"><title>harvest_turnips&#45;&gt;field</title>
<path fill="none" stroke="black" d="M280.061,-230.41C261.828,-250.189 237,-283.462 237,-318 237,-510 237,-510 237,-510 237,-562.873 267.214,-618.354 287.942,-650.195"/>
<polygon fill="black" stroke="black" points="285.04,-652.153 293.503,-658.527 290.862,-648.267 285.04,-652.153"/>
</g>
<!-- harvest_turnips&#45;&gt;food -->
<g id="edge43" class="edge"><title>harvest_turnips&#45;&gt;food</title>
<path fill="none" stroke="black" d="M283.013,-193.787C272.133,-181.392 257.512,-164.735 245.092,-150.586"/>
<polygon fill="black" stroke="black" points="247.684,-148.233 238.457,-143.026 242.423,-152.851 247.684,-148.233"/>
</g>
<!-- trade -->
<g id="node6" class="node"><title>trade</title>
<ellipse fill="none" stroke="black" cx="510" cy="-565" rx="36.977" ry="18.3848"/>
<text text-anchor="middle" x="510" y="-561.4" font-family="Times Roman,serif" font-size="14.00">trade</text>
</g>
<!-- build_fence -->
<g id="node7" class="node"><title>build_fence</title>
<ellipse fill="none" stroke="black" cx="592" cy="-677" rx="65.9683" ry="18.3848"/>
<text text-anchor="middle" x="592" y="-673.4" font-family="Times Roman,serif" font-size="14.00">build_fence</text>
</g>
<!-- fence -->
<g id="node20" class="node"><title>fence</title>
<polygon fill="none" stroke="black" points="619,-583 565,-583 565,-547 619,-547 619,-583"/>
<text text-anchor="middle" x="592" y="-561.4" font-family="Times Roman,serif" font-size="14.00">fence</text>
</g>
<!-- build_fence&#45;&gt;fence -->
<g id="edge6" class="edge"><title>build_fence&#45;&gt;fence</title>
<path fill="none" stroke="black" d="M592,-658.254C592,-640.518 592,-613.657 592,-593.312"/>
<polygon fill="black" stroke="black" points="595.5,-593.065 592,-583.065 588.5,-593.065 595.5,-593.065"/>
</g>
<!-- build_wall -->
<g id="node8" class="node"><title>build_wall</title>
<ellipse fill="none" stroke="black" cx="563" cy="-448" rx="60.8112" ry="18.3848"/>
<text text-anchor="middle" x="563" y="-444.4" font-family="Times Roman,serif" font-size="14.00">build_wall</text>
</g>
<!-- wall -->
<g id="node21" class="node"><title>wall</title>
<polygon fill="none" stroke="black" points="590,-336 536,-336 536,-300 590,-300 590,-336"/>
<text text-anchor="middle" x="563" y="-314.4" font-family="Times Roman,serif" font-size="14.00">wall</text>
</g>
<!-- build_wall&#45;&gt;wall -->
<g id="edge10" class="edge"><title>build_wall&#45;&gt;wall</title>
<path fill="none" stroke="black" d="M563,-429.374C563,-407.627 563,-371.43 563,-346.227"/>
<polygon fill="black" stroke="black" points="566.5,-346.172 563,-336.172 559.5,-346.172 566.5,-346.172"/>
</g>
<!-- build_well -->
<g id="node9" class="node"><title>build_well</title>
<ellipse fill="none" stroke="black" cx="61" cy="-621" rx="60.8112" ry="18.3848"/>
<text text-anchor="middle" x="61" y="-617.4" font-family="Times Roman,serif" font-size="14.00">build_well</text>
</g>
<!-- well -->
<g id="node22" class="node"><title>well</title>
<polygon fill="none" stroke="black" points="125,-528 71,-528 71,-492 125,-492 125,-528"/>
<text text-anchor="middle" x="98" y="-506.4" font-family="Times Roman,serif" font-size="14.00">well</text>
</g>
<!-- build_well&#45;&gt;well -->
<g id="edge12" class="edge"><title>build_well&#45;&gt;well</title>
<path fill="none" stroke="black" d="M67.193,-602.421C73.071,-584.787 81.9827,-558.052 88.7115,-537.865"/>
<polygon fill="black" stroke="black" points="92.068,-538.864 91.91,-528.27 85.4272,-536.65 92.068,-538.864"/>
</g>
<!-- autumn -->
<g id="node11" class="node"><title>autumn</title>
<polygon fill="none" stroke="black" points="688,-344 617,-318 688,-292 759,-318 688,-344"/>
<text text-anchor="middle" x="688" y="-314.4" font-family="Times Roman,serif" font-size="14.00">autumn</text>
</g>
<!-- winter -->
<g id="node12" class="node"><title>winter</title>
<polygon fill="none" stroke="black" points="694,-238 632,-212 694,-186 756,-212 694,-238"/>
<text text-anchor="middle" x="694" y="-208.4" font-family="Times Roman,serif" font-size="14.00">winter</text>
</g>
<!-- autumn&#45;&gt;winter -->
<g id="edge38" class="edge"><title>autumn&#45;&gt;winter</title>
<path fill="none" stroke="black" d="M689.452,-292.34C690.212,-278.93 691.153,-262.303 691.981,-247.66"/>
<polygon fill="black" stroke="black" points="695.49,-247.605 692.561,-237.423 688.501,-247.21 695.49,-247.605"/>
</g>
<!-- spring -->
<g id="node13" class="node"><title>spring</title>
<polygon fill="none" stroke="black" points="738,-148 679,-122 738,-96 797,-122 738,-148"/>
<text text-anchor="middle" x="738" y="-118.4" font-family="Times Roman,serif" font-size="14.00">spring</text>
</g>
<!-- winter&#45;&gt;spring -->
<g id="edge39" class="edge"><title>winter&#45;&gt;spring</title>
<path fill="none" stroke="black" d="M704.651,-190.214C710.164,-178.938 716.986,-164.984 723.02,-152.64"/>
<polygon fill="black" stroke="black" points="726.199,-154.107 727.447,-143.586 719.91,-151.032 726.199,-154.107"/>
</g>
<!-- summer -->
<g id="node14" class="node"><title>summer</title>
<polygon fill="none" stroke="black" points="714,-474 642,-448 714,-422 786,-448 714,-474"/>
<text text-anchor="middle" x="714" y="-444.4" font-family="Times Roman,serif" font-size="14.00">summer</text>
</g>
<!-- spring&#45;&gt;summer -->
<g id="edge40" class="edge"><title>spring&#45;&gt;summer</title>
<path fill="none" stroke="black" d="M749.323,-143.262C755.186,-155.415 761.777,-171.151 765,-186 771.205,-214.587 773.325,-322.189 768,-344 761.472,-370.737 746.764,-398.258 734.344,-418.268"/>
<polygon fill="black" stroke="black" points="731.263,-416.591 728.836,-426.904 737.165,-420.355 731.263,-416.591"/>
</g>
<!-- summer&#45;&gt;autumn -->
<g id="edge41" class="edge"><title>summer&#45;&gt;autumn</title>
<path fill="none" stroke="black" d="M709.11,-423.548C705.097,-403.484 699.367,-374.837 694.89,-352.449"/>
<polygon fill="black" stroke="black" points="698.262,-351.462 692.868,-342.342 691.398,-352.835 698.262,-351.462"/>
</g>
<!-- turnip_field_ripe -->
<g id="node18" class="node"><title>turnip_field_ripe</title>
<polygon fill="none" stroke="black" points="405,-336 277,-336 277,-300 405,-300 405,-336"/>
<text text-anchor="middle" x="341" y="-314.4" font-family="Times Roman,serif" font-size="14.00">turnip_field_ripe</text>
</g>
<!-- summer&#45;&gt;turnip_field_ripe -->
<g id="edge36" class="edge"><title>summer&#45;&gt;turnip_field_ripe</title>
<path fill="none" stroke="black" d="M682.578,-433.179C642.801,-414.802 571.873,-383.303 509,-362 478.598,-351.699 444.427,-342.356 414.879,-334.956"/>
<polygon fill="black" stroke="black" points="415.596,-331.528 405.048,-332.522 413.914,-338.323 415.596,-331.528"/>
</g>
<!-- field&#45;&gt;plant_turnips -->
<g id="edge30" class="edge"><title>field&#45;&gt;plant_turnips</title>
<path fill="none" stroke="black" d="M312.614,-658.505C318.004,-640.753 326.218,-613.694 332.426,-593.244"/>
<polygon fill="black" stroke="black" points="335.821,-594.108 335.377,-583.522 329.123,-592.074 335.821,-594.108"/>
</g>
<!-- turnip_field&#45;&gt;turnip_field_ripe -->
<g id="edge32" class="edge"><title>turnip_field&#45;&gt;turnip_field_ripe</title>
<path fill="none" stroke="black" d="M341,-429.924C341,-408.314 341,-371.887 341,-346.48"/>
<polygon fill="black" stroke="black" points="344.5,-346.341 341,-336.342 337.5,-346.342 344.5,-346.341"/>
</g>
<!-- turnip_field_ripe&#45;&gt;harvest_turnips -->
<g id="edge33" class="edge"><title>turnip_field_ripe&#45;&gt;harvest_turnips</title>
<path fill="none" stroke="black" d="M333.684,-299.536C327.19,-283.145 317.602,-258.948 310.152,-240.146"/>
<polygon fill="black" stroke="black" points="313.311,-238.615 306.373,-230.608 306.803,-241.194 313.311,-238.615"/>
</g>
<!-- house -->
<g id="node19" class="node"><title>house</title>
<polygon fill="none" stroke="black" points="410,-695 352,-695 352,-659 410,-659 410,-695"/>
<text text-anchor="middle" x="381" y="-673.4" font-family="Times Roman,serif" font-size="14.00">house</text>
</g>
<!-- house&#45;&gt;trade -->
<g id="edge26" class="edge"><title>house&#45;&gt;trade</title>
<path fill="none" stroke="black" d="M410.4,-662.152C413.298,-660.733 416.201,-659.329 419,-658 436.611,-649.639 444.067,-652.533 459,-640 474.581,-626.923 487.425,-607.945 496.325,-592.351"/>
<polygon fill="black" stroke="black" points="499.622,-593.616 501.347,-583.163 493.48,-590.259 499.622,-593.616"/>
</g>
<!-- housing -->
<g id="node26" class="node"><title>housing</title>
<polygon fill="none" stroke="black" points="499.971,-383 470.986,-404.229 413.014,-404.229 384.029,-383 413.014,-361.771 470.986,-361.771 499.971,-383"/>
<text text-anchor="middle" x="442" y="-379.4" font-family="Times Roman,serif" font-size="14.00">housing</text>
</g>
<!-- house&#45;&gt;housing -->
<g id="edge28" class="edge"><title>house&#45;&gt;housing</title>
<path fill="none" stroke="black" d="M392.268,-658.917C402.979,-640.733 418.529,-611.523 426,-584 441.834,-525.666 443.587,-454.581 443.051,-414.485"/>
<polygon fill="black" stroke="black" points="446.546,-414.202 442.855,-404.271 439.547,-414.336 446.546,-414.202"/>
</g>
<!-- fence&#45;&gt;build_wall -->
<g id="edge8" class="edge"><title>fence&#45;&gt;build_wall</title>
<path fill="none" stroke="black" d="M587.532,-546.975C582.869,-528.161 575.49,-498.39 570.042,-476.409"/>
<polygon fill="black" stroke="black" points="573.42,-475.49 567.617,-466.626 566.625,-477.174 573.42,-475.49"/>
</g>
<!-- gloom -->
<g id="node24" class="node"><title>gloom</title>
<polygon fill="none" stroke="black" points="266.858,-21 243.429,-42.2289 196.571,-42.2289 173.142,-21 196.571,0.228911 243.429,0.228911 266.858,-21"/>
<text text-anchor="middle" x="220" y="-17.4" font-family="Times Roman,serif" font-size="14.00">gloom</text>
</g>
<!-- well&#45;&gt;gloom -->
<g id="edge47" class="edge"><title>well&#45;&gt;gloom</title>
<path fill="none" stroke="black" d="M101.015,-491.973C104.855,-467.408 111,-422.008 111,-383 111,-383 111,-383 111,-122 111,-83.4915 148.057,-55.5523 178.957,-38.9489"/>
<polygon fill="black" stroke="black" points="180.589,-42.0454 187.886,-34.3641 177.391,-35.8183 180.589,-42.0454"/>
<text text-anchor="middle" x="119" y="-261.4" font-family="Times Roman,serif" font-size="14.00">&#45;&#45;&#45;</text>
</g>
<!-- food&#45;&gt;gloom -->
<g id="edge49" class="edge"><title>food&#45;&gt;gloom</title>
<path fill="none" stroke="black" d="M220,-100.58C220,-86.5601 220,-68.0033 220,-52.336"/>
<polygon fill="black" stroke="black" points="223.5,-52.0423 220,-42.0423 216.5,-52.0423 223.5,-52.0423"/>
<text text-anchor="middle" x="225.5" y="-65.4" font-family="Times Roman,serif" font-size="14.00">&#45;&#45;</text>
</g>
<!-- housing&#45;&gt;gloom -->
<g id="edge51" class="edge"><title>housing&#45;&gt;gloom</title>
<path fill="none" stroke="black" d="M441.711,-361.683C441.415,-338.052 441,-298.803 441,-265 441,-265 441,-265 441,-122 441,-84.1596 332.465,-49.7537 267.516,-32.5523"/>
<polygon fill="black" stroke="black" points="268.049,-29.0744 257.49,-29.9414 266.285,-35.8485 268.049,-29.0744"/>
<text text-anchor="middle" x="444" y="-208.4" font-family="Times Roman,serif" font-size="14.00">&#45;</text>
</g>
<!-- root -->
<g id="node27" class="node"><title>root</title>
<polygon fill="none" stroke="black" points="365,-752 351.5,-770 324.5,-770 311,-752 324.5,-734 351.5,-734 365,-752"/>
</g>
<!-- root&#45;&gt;scavenge -->
<g id="edge22" class="edge"><title>root&#45;&gt;scavenge</title>
<path fill="none" stroke="black" d="M321.166,-738.006C307.594,-726.705 288.03,-710.374 271,-696 250.962,-679.088 228.461,-659.908 211.228,-645.177"/>
<polygon fill="black" stroke="black" points="213.1,-642.173 203.225,-638.333 208.55,-647.492 213.1,-642.173"/>
</g>
<!-- root&#45;&gt;patrol -->
<g id="edge20" class="edge"><title>root&#45;&gt;patrol</title>
<path fill="none" stroke="black" d="M356.903,-741.094C377.098,-729.443 409.525,-710.736 434.145,-696.532"/>
<polygon fill="black" stroke="black" points="435.912,-699.553 442.825,-691.524 432.414,-693.49 435.912,-699.553"/>
</g>
<!-- root&#45;&gt;build_fence -->
<g id="edge24" class="edge"><title>root&#45;&gt;build_fence</title>
<path fill="none" stroke="black" d="M360.541,-745.344C399.712,-733.778 481.422,-709.651 536.507,-693.386"/>
<polygon fill="black" stroke="black" points="537.527,-696.734 546.127,-690.545 535.545,-690.021 537.527,-696.734"/>
</g>
<!-- root&#45;&gt;build_well -->
<g id="edge16" class="edge"><title>root&#45;&gt;build_well</title>
<path fill="none" stroke="black" d="M317.632,-742.367C272.684,-721.11 164.199,-669.805 103.657,-641.173"/>
<polygon fill="black" stroke="black" points="104.905,-637.892 94.3685,-636.781 101.912,-644.22 104.905,-637.892"/>
</g>
<!-- root&#45;&gt;field -->
<g id="edge18" class="edge"><title>root&#45;&gt;field</title>
<path fill="none" stroke="black" d="M330.496,-733.845C326.867,-725.066 322.433,-714.339 318.399,-704.579"/>
<polygon fill="black" stroke="black" points="321.597,-703.153 314.543,-695.248 315.128,-705.827 321.597,-703.153"/>
</g>
<!-- root&#45;&gt;house -->
<g id="edge14" class="edge"><title>root&#45;&gt;house</title>
<path fill="none" stroke="black" d="M348.409,-733.845C353.547,-724.883 359.849,-713.891 365.537,-703.97"/>
<polygon fill="black" stroke="black" points="368.6,-705.664 370.538,-695.248 362.527,-702.183 368.6,-705.664"/>
</g>
</g>
</svg>
