<?xml version="1.0" encoding="UTF-8" standalone="no"?>
<!DOCTYPE svg PUBLIC "-//W3C//DTD SVG 1.1//EN"
 "http://www.w3.org/Graphics/SVG/1.1/DTD/svg11.dtd">
<!-- Generated by graphviz version 2.26.3 (20100126.1600)
 -->
<!-- Title: _anonymous_0 Pages: 1 -->
<svg width="1944pt" height="1480pt"
 viewBox="0.00 0.00 1943.83 1480.00" xmlns="http://www.w3.org/2000/svg" xmlns:xlink="http://www.w3.org/1999/xlink">
<g id="graph1" class="graph" transform="scale(1 1) rotate(0) translate(4 1476)">
<title>_anonymous_0</title>
<polygon fill="white" stroke="white" points="-4,5 -4,-1476 1940.83,-1476 1940.83,5 -4,5"/>
<!-- always_available -->
<g id="node1" class="node"><title>always_available</title>
<ellipse fill="none" stroke="black" cx="595" cy="-1378" rx="94.0452" ry="94.0452"/>
<text text-anchor="middle" x="595" y="-1374.4" font-family="Times Roman,serif" font-size="14.00">always_available</text>
</g>
<!-- recruit -->
<g id="node4" class="node"><title>recruit</title>
<polygon fill="none" stroke="black" points="967,-1248 905,-1248 905,-1212 967,-1212 967,-1248"/>
<text text-anchor="middle" x="936" y="-1226.4" font-family="Times Roman,serif" font-size="14.00">recruit</text>
</g>
<!-- always_available&#45;&gt;recruit -->
<g id="edge9" class="edge"><title>always_available&#45;&gt;recruit</title>
<path fill="none" stroke="black" d="M681.49,-1340.46C750.218,-1310.63 843.227,-1270.27 895.67,-1247.5"/>
<polygon fill="black" stroke="black" points="897.196,-1250.66 904.975,-1243.47 894.409,-1244.24 897.196,-1250.66"/>
</g>
<!-- scavenge -->
<g id="node5" class="node"><title>scavenge</title>
<polygon fill="none" stroke="black" points="544,-1020 464,-1020 464,-984 544,-984 544,-1020"/>
<text text-anchor="middle" x="504" y="-998.4" font-family="Times Roman,serif" font-size="14.00">scavenge</text>
</g>
<!-- always_available&#45;&gt;scavenge -->
<g id="edge11" class="edge"><title>always_available&#45;&gt;scavenge</title>
<path fill="none" stroke="black" d="M541.823,-1300.27C508.174,-1246.21 467.78,-1171 450,-1098 445.583,-1079.86 442.857,-1073.25 450,-1056 454.552,-1045.01 462.546,-1035.09 471.01,-1026.84"/>
<polygon fill="black" stroke="black" points="473.45,-1029.35 478.495,-1020.04 468.741,-1024.17 473.45,-1029.35"/>
</g>
<!-- patrol -->
<g id="node6" class="node"><title>patrol</title>
<polygon fill="none" stroke="black" points="623,-1020 567,-1020 567,-984 623,-984 623,-1020"/>
<text text-anchor="middle" x="595" y="-998.4" font-family="Times Roman,serif" font-size="14.00">patrol</text>
</g>
<!-- always_available&#45;&gt;patrol -->
<g id="edge13" class="edge"><title>always_available&#45;&gt;patrol</title>
<path fill="none" stroke="black" d="M595,-1283.6C595,-1199.96 595,-1083.13 595,-1030.13"/>
<polygon fill="black" stroke="black" points="598.5,-1030.11 595,-1020.11 591.5,-1030.11 598.5,-1030.11"/>
</g>
<!-- victory -->
<g id="node2" class="node"><title>victory</title>
<ellipse fill="none" stroke="black" cx="897" cy="-50" rx="44.7977" ry="45.2548"/>
<ellipse fill="none" stroke="black" cx="897" cy="-50" rx="48.7573" ry="49.2548"/>
<text text-anchor="middle" x="897" y="-46.4" font-family="Times Roman,serif" font-size="14.00">victory</text>
</g>
<!-- characters -->
<g id="node33" class="node"><title>characters</title>
<polygon fill="none" stroke="black" points="1290.17,-1155 1254.08,-1176.23 1181.92,-1176.23 1145.83,-1155 1181.92,-1133.77 1254.08,-1133.77 1290.17,-1155"/>
<text text-anchor="middle" x="1218" y="-1151.4" font-family="Times Roman,serif" font-size="14.00">characters</text>
</g>
<!-- recruit&#45;&gt;characters -->
<g id="edge61" class="edge"><title>recruit&#45;&gt;characters</title>
<path fill="none" stroke="black" d="M967.256,-1221.69C1013.21,-1209.47 1099.87,-1186.42 1158.27,-1170.88"/>
<polygon fill="black" stroke="black" points="1159.35,-1174.22 1168.11,-1168.27 1157.55,-1167.46 1159.35,-1174.22"/>
</g>
<!-- activity -->
<g id="node38" class="node"><title>activity</title>
<polygon fill="none" stroke="red" points="1341.02,-927 1313.51,-948.229 1258.49,-948.229 1230.98,-927 1258.49,-905.771 1313.51,-905.771 1341.02,-927"/>
<text text-anchor="middle" x="1286" y="-923.4" font-family="Times Roman,serif" font-size="14.00">activity</text>
</g>
<!-- recruit&#45;&gt;activity -->
<g id="edge197" class="edge"><title>recruit&#45;&gt;activity</title>
<path fill="none" stroke="black" d="M967.08,-1228.21C1126.95,-1218.66 1851.7,-1171.55 1916,-1098 1928.29,-1083.95 1927.8,-1070.46 1916,-1056 1844.57,-968.464 1492.31,-938.709 1347.91,-930.086"/>
<polygon fill="black" stroke="black" points="1348.07,-926.589 1337.88,-929.501 1347.66,-933.577 1348.07,-926.589"/>
</g>
<!-- fuel -->
<g id="node28" class="node"><title>fuel</title>
<polygon fill="none" stroke="orange" points="1351.8,-469 1334.9,-490.229 1301.1,-490.229 1284.2,-469 1301.1,-447.771 1334.9,-447.771 1351.8,-469"/>
<text text-anchor="middle" x="1318" y="-465.4" font-family="Times Roman,serif" font-size="14.00">fuel</text>
</g>
<!-- scavenge&#45;&gt;fuel -->
<g id="edge51" class="edge"><title>scavenge&#45;&gt;fuel</title>
<path fill="none" stroke="black" d="M544.255,-988.065C548.869,-986.622 553.522,-985.234 558,-984 629.942,-964.173 652.753,-975.814 722,-948 944.14,-858.774 1007.72,-823.816 1168,-646 1213.94,-595.034 1265.16,-533.525 1294.29,-498.07"/>
<polygon fill="black" stroke="black" points="1297.22,-500.015 1300.85,-490.063 1291.81,-495.576 1297.22,-500.015"/>
</g>
<!-- ammo -->
<g id="node29" class="node"><title>ammo</title>
<polygon fill="none" stroke="orange" points="96.1733,-469 72.0866,-490.229 23.9134,-490.229 -0.173298,-469 23.9134,-447.771 72.0866,-447.771 96.1733,-469"/>
<text text-anchor="middle" x="48" y="-465.4" font-family="Times Roman,serif" font-size="14.00">ammo</text>
</g>
<!-- scavenge&#45;&gt;ammo -->
<g id="edge53" class="edge"><title>scavenge&#45;&gt;ammo</title>
<path fill="none" stroke="black" d="M463.734,-999.389C363.657,-992.548 109.631,-972.897 81,-948 46.5851,-918.073 54,-894.607 54,-849 54,-849 54,-849 54,-625 54,-581.844 51.6789,-532.023 49.924,-500.522"/>
<polygon fill="black" stroke="black" points="53.3981,-499.969 49.3316,-490.185 46.4095,-500.369 53.3981,-499.969"/>
</g>
<!-- metal -->
<g id="node30" class="node"><title>metal</title>
<polygon fill="none" stroke="orange" points="361.221,-469 338.611,-490.229 293.389,-490.229 270.779,-469 293.389,-447.771 338.611,-447.771 361.221,-469"/>
<text text-anchor="middle" x="316" y="-465.4" font-family="Times Roman,serif" font-size="14.00">metal</text>
</g>
<!-- scavenge&#45;&gt;metal -->
<g id="edge55" class="edge"><title>scavenge&#45;&gt;metal</title>
<path fill="none" stroke="black" d="M463.96,-989.937C407.953,-970.296 313,-925.689 313,-849 313,-849 313,-849 313,-625 313,-581.868 314.161,-532.041 315.038,-500.533"/>
<polygon fill="black" stroke="black" points="318.546,-500.289 315.334,-490.193 311.549,-500.088 318.546,-500.289"/>
</g>
<!-- wood -->
<g id="node31" class="node"><title>wood</title>
<polygon fill="none" stroke="orange" points="619.091,-469 597.045,-490.229 552.955,-490.229 530.909,-469 552.955,-447.771 597.045,-447.771 619.091,-469"/>
<text text-anchor="middle" x="575" y="-465.4" font-family="Times Roman,serif" font-size="14.00">wood</text>
</g>
<!-- scavenge&#45;&gt;wood -->
<g id="edge57" class="edge"><title>scavenge&#45;&gt;wood</title>
<path fill="none" stroke="black" d="M506.403,-983.961C516.757,-906.235 557.63,-599.397 570.851,-500.149"/>
<polygon fill="black" stroke="black" points="574.332,-500.522 572.183,-490.148 567.393,-499.598 574.332,-500.522"/>
</g>
<!-- food -->
<g id="node32" class="node"><title>food</title>
<polygon fill="none" stroke="orange" points="1003.06,-469 984.529,-490.229 947.471,-490.229 928.942,-469 947.471,-447.771 984.529,-447.771 1003.06,-469"/>
<text text-anchor="middle" x="966" y="-465.4" font-family="Times Roman,serif" font-size="14.00">food</text>
</g>
<!-- scavenge&#45;&gt;food -->
<g id="edge59" class="edge"><title>scavenge&#45;&gt;food</title>
<path fill="none" stroke="black" d="M544.219,-988.341C634.017,-957.262 843,-881.447 843,-849 843,-849 843,-849 843,-773 843,-672.952 900.75,-661.633 936,-568 944.46,-545.529 952.266,-519.527 957.793,-499.812"/>
<polygon fill="black" stroke="black" points="961.18,-500.697 960.468,-490.126 954.432,-498.834 961.18,-500.697"/>
</g>
<!-- scavenge&#45;&gt;activity -->
<g id="edge199" class="edge"><title>scavenge&#45;&gt;activity</title>
<path fill="none" stroke="black" d="M544.101,-987.419C548.743,-986.095 553.446,-984.911 558,-984 772.556,-941.072 830.906,-965.657 1049,-948 1109.41,-943.109 1178.43,-936.926 1226.35,-932.538"/>
<polygon fill="black" stroke="black" points="1226.9,-936.002 1236.54,-931.603 1226.26,-929.031 1226.9,-936.002"/>
</g>
<!-- security -->
<g id="node35" class="node"><title>security</title>
<polygon fill="none" stroke="red" points="289.971,-313 260.986,-334.229 203.014,-334.229 174.029,-313 203.014,-291.771 260.986,-291.771 289.971,-313"/>
<text text-anchor="middle" x="232" y="-309.4" font-family="Times Roman,serif" font-size="14.00">security</text>
</g>
<!-- patrol&#45;&gt;security -->
<g id="edge39" class="edge"><title>patrol&#45;&gt;security</title>
<path fill="none" stroke="black" d="M566.964,-988.52C562.381,-986.745 557.62,-985.147 553,-984 458.001,-960.414 186.842,-1013.38 114,-948 80.6589,-918.072 95,-893.803 95,-849 95,-849 95,-849 95,-773 95,-668.235 162,-651.765 162,-547 162,-547 162,-547 162,-469 162,-421.719 189.097,-372.884 209.573,-342.731"/>
<polygon fill="black" stroke="black" points="212.557,-344.571 215.411,-334.368 206.817,-340.564 212.557,-344.571"/>
</g>
<!-- patrol&#45;&gt;activity -->
<g id="edge201" class="edge"><title>patrol&#45;&gt;activity</title>
<path fill="none" stroke="black" d="M623.376,-998.92C726.817,-987.693 1085.02,-948.814 1227.19,-933.383"/>
<polygon fill="black" stroke="black" points="1227.89,-936.828 1237.45,-932.27 1227.13,-929.869 1227.89,-936.828"/>
</g>
<!-- farm -->
<g id="node7" class="node"><title>farm</title>
<polygon fill="none" stroke="black" points="1134,-643 1080,-643 1080,-607 1134,-607 1134,-643"/>
<text text-anchor="middle" x="1107" y="-621.4" font-family="Times Roman,serif" font-size="14.00">farm</text>
</g>
<!-- farm&#45;&gt;food -->
<g id="edge33" class="edge"><title>farm&#45;&gt;food</title>
<path fill="none" stroke="black" d="M1098.31,-606.763C1087.71,-585.732 1068.29,-550.867 1045,-526 1031.66,-511.76 1014.3,-498.779 999.257,-488.814"/>
<polygon fill="black" stroke="black" points="1001.01,-485.783 990.712,-483.309 997.222,-491.667 1001.01,-485.783"/>
</g>
<!-- farm&#45;&gt;activity -->
<g id="edge203" class="edge"><title>farm&#45;&gt;activity</title>
<path fill="none" stroke="black" d="M1134.02,-635.335C1154.99,-644.626 1183.36,-660.182 1201,-682 1253.34,-746.75 1274.42,-845.802 1282.09,-895.808"/>
<polygon fill="black" stroke="black" points="1278.66,-896.598 1283.56,-905.991 1285.59,-895.592 1278.66,-896.598"/>
</g>
<!-- stable_food -->
<g id="node44" class="node"><title>stable_food</title>
<polygon fill="none" stroke="black" points="974.067,-313 935.533,-334.229 858.467,-334.229 819.933,-313 858.467,-291.771 935.533,-291.771 974.067,-313"/>
<text text-anchor="middle" x="897" y="-309.4" font-family="Times Roman,serif" font-size="14.00">stable_food</text>
</g>
<!-- farm&#45;&gt;stable_food -->
<g id="edge181" class="edge"><title>farm&#45;&gt;stable_food</title>
<path fill="none" stroke="black" d="M1101.4,-606.653C1095.23,-586.703 1084.88,-553.929 1075,-526 1062.62,-490.983 1063.81,-480.029 1045,-448 1022.15,-409.087 1013.36,-400.392 980,-370 968.022,-359.087 953.837,-348.604 940.612,-339.67"/>
<polygon fill="black" stroke="black" points="942.365,-336.633 932.093,-334.034 938.502,-342.471 942.365,-336.633"/>
</g>
<!-- repair_car -->
<g id="node8" class="node"><title>repair_car</title>
<polygon fill="none" stroke="black" points="1357,-1020 1273,-1020 1273,-984 1357,-984 1357,-1020"/>
<text text-anchor="middle" x="1315" y="-998.4" font-family="Times Roman,serif" font-size="14.00">repair_car</text>
</g>
<!-- repair_car&#45;&gt;activity -->
<g id="edge205" class="edge"><title>repair_car&#45;&gt;activity</title>
<path fill="none" stroke="black" d="M1307.98,-983.845C1304.93,-975.949 1301.26,-966.478 1297.81,-957.551"/>
<polygon fill="black" stroke="black" points="1301.06,-956.244 1294.19,-948.179 1294.53,-958.768 1301.06,-956.244"/>
</g>
<!-- car -->
<g id="node48" class="node"><title>car</title>
<polygon fill="none" stroke="magenta" points="1351.03,-391 1335.51,-412.229 1304.49,-412.229 1288.97,-391 1304.49,-369.771 1335.51,-369.771 1351.03,-391"/>
<text text-anchor="middle" x="1320" y="-387.4" font-family="Times Roman,serif" font-size="14.00">car</text>
</g>
<!-- repair_car&#45;&gt;car -->
<g id="edge19" class="edge"><title>repair_car&#45;&gt;car</title>
<path fill="none" stroke="black" d="M1337.86,-983.918C1368.2,-957.702 1418,-905.997 1418,-849 1418,-849 1418,-849 1418,-547 1418,-493.271 1375.8,-442.882 1346.79,-414.586"/>
<polygon fill="black" stroke="black" points="1349.03,-411.886 1339.36,-407.542 1344.21,-416.964 1349.03,-411.886"/>
</g>
<!-- preach -->
<g id="node9" class="node"><title>preach</title>
<polygon fill="none" stroke="black" points="1354,-331 1292,-331 1292,-295 1354,-295 1354,-331"/>
<text text-anchor="middle" x="1323" y="-309.4" font-family="Times Roman,serif" font-size="14.00">preach</text>
</g>
<!-- preach&#45;&gt;activity -->
<g id="edge207" class="edge"><title>preach&#45;&gt;activity</title>
<path fill="none" stroke="black" d="M1337.22,-331.014C1345.04,-341.769 1354.29,-356.019 1360,-370 1376.96,-411.56 1380,-424.111 1380,-469 1380,-773 1380,-773 1380,-773 1380,-817.75 1377.1,-832.293 1353,-870 1345.46,-881.793 1334.74,-892.447 1324.07,-901.266"/>
<polygon fill="black" stroke="black" points="1321.67,-898.703 1315.98,-907.641 1326,-904.201 1321.67,-898.703"/>
</g>
<!-- entertainment -->
<g id="node94" class="node"><title>entertainment</title>
<ellipse fill="none" stroke="black" cx="1239" cy="-235" rx="82.2301" ry="18.3848"/>
<text text-anchor="middle" x="1239" y="-231.4" font-family="Times Roman,serif" font-size="14.00">entertainment</text>
</g>
<!-- preach&#45;&gt;entertainment -->
<g id="edge87" class="edge"><title>preach&#45;&gt;entertainment</title>
<path fill="none" stroke="black" d="M1303.52,-294.909C1292.28,-284.474 1277.99,-271.203 1265.71,-259.805"/>
<polygon fill="black" stroke="black" points="1268.09,-257.232 1258.38,-252.993 1263.32,-262.362 1268.09,-257.232"/>
</g>
<!-- strip -->
<g id="node10" class="node"><title>strip</title>
<polygon fill="none" stroke="black" points="1186,-331 1132,-331 1132,-295 1186,-295 1186,-331"/>
<text text-anchor="middle" x="1159" y="-309.4" font-family="Times Roman,serif" font-size="14.00">strip</text>
</g>
<!-- strip&#45;&gt;activity -->
<g id="edge209" class="edge"><title>strip&#45;&gt;activity</title>
<path fill="none" stroke="black" d="M1157.89,-331.016C1157,-350.958 1156.55,-383.987 1161,-412 1191.34,-602.786 1259.18,-636.829 1287,-828 1290.26,-850.388 1289.9,-875.926 1288.79,-895.456"/>
<polygon fill="black" stroke="black" points="1285.28,-895.419 1288.11,-905.63 1292.26,-895.885 1285.28,-895.419"/>
</g>
<!-- strip&#45;&gt;entertainment -->
<g id="edge89" class="edge"><title>strip&#45;&gt;entertainment</title>
<path fill="none" stroke="black" d="M1177.55,-294.909C1188.08,-284.646 1201.42,-271.64 1212.98,-260.371"/>
<polygon fill="black" stroke="black" points="1215.55,-262.75 1220.27,-253.263 1210.67,-257.738 1215.55,-262.75"/>
</g>
<!-- bartend -->
<g id="node11" class="node"><title>bartend</title>
<polygon fill="none" stroke="black" points="1274,-331 1204,-331 1204,-295 1274,-295 1274,-331"/>
<text text-anchor="middle" x="1239" y="-309.4" font-family="Times Roman,serif" font-size="14.00">bartend</text>
</g>
<!-- bartend&#45;&gt;activity -->
<g id="edge211" class="edge"><title>bartend&#45;&gt;activity</title>
<path fill="none" stroke="black" d="M1242.28,-331.183C1247.22,-360.213 1256,-418.872 1256,-469 1256,-547 1256,-547 1256,-547 1256,-612.48 1301.61,-617.905 1315,-682 1332.09,-763.789 1334.48,-788.747 1315,-870 1312.82,-879.1 1308.93,-888.386 1304.69,-896.75"/>
<polygon fill="black" stroke="black" points="1301.51,-895.279 1299.84,-905.741 1307.67,-898.605 1301.51,-895.279"/>
</g>
<!-- bartend&#45;&gt;entertainment -->
<g id="edge91" class="edge"><title>bartend&#45;&gt;entertainment</title>
<path fill="none" stroke="black" d="M1239,-294.909C1239,-285.69 1239,-274.259 1239,-263.86"/>
<polygon fill="black" stroke="black" points="1242.5,-263.534 1239,-253.534 1235.5,-263.534 1242.5,-263.534"/>
</g>
<!-- oversee_farms -->
<g id="node12" class="node"><title>oversee_farms</title>
<polygon fill="none" stroke="black" points="1255,-1020 1139,-1020 1139,-984 1255,-984 1255,-1020"/>
<text text-anchor="middle" x="1197" y="-998.4" font-family="Times Roman,serif" font-size="14.00">oversee_farms</text>
</g>
<!-- oversee_farms&#45;&gt;farm -->
<g id="edge109" class="edge"><title>oversee_farms&#45;&gt;farm</title>
<path fill="none" stroke="black" d="M1195.02,-983.655C1192.11,-954.965 1187,-897.713 1187,-849 1187,-849 1187,-849 1187,-773 1187,-725.681 1154.96,-678.98 1131.43,-651.066"/>
<polygon fill="black" stroke="black" points="1133.95,-648.627 1124.75,-643.367 1128.66,-653.214 1133.95,-648.627"/>
</g>
<!-- oversee_farms&#45;&gt;activity -->
<g id="edge213" class="edge"><title>oversee_farms&#45;&gt;activity</title>
<path fill="none" stroke="black" d="M1218.54,-983.845C1228.91,-975.109 1241.57,-964.445 1253.1,-954.723"/>
<polygon fill="black" stroke="black" points="1255.48,-957.299 1260.87,-948.179 1250.97,-951.946 1255.48,-957.299"/>
</g>
<!-- fence -->
<g id="node14" class="node"><title>fence</title>
<polygon fill="none" stroke="green" points="662,-409 608,-409 608,-373 662,-373 662,-409"/>
<text text-anchor="middle" x="635" y="-387.4" font-family="Times Roman,serif" font-size="14.00">fence</text>
</g>
<!-- fence&#45;&gt;security -->
<g id="edge41" class="edge"><title>fence&#45;&gt;security</title>
<path fill="none" stroke="black" d="M607.998,-373.839C605.033,-372.384 602,-371.065 599,-370 497.438,-333.951 372.056,-320.677 297.249,-315.805"/>
<polygon fill="black" stroke="black" points="297.234,-312.298 287.036,-315.172 296.801,-319.284 297.234,-312.298"/>
</g>
<!-- wall -->
<g id="node15" class="node"><title>wall</title>
<polygon fill="none" stroke="green" points="282,-409 228,-409 228,-373 282,-373 282,-409"/>
<text text-anchor="middle" x="255" y="-387.4" font-family="Times Roman,serif" font-size="14.00">wall</text>
</g>
<!-- wall&#45;&gt;security -->
<g id="edge111" class="edge"><title>wall&#45;&gt;security</title>
<path fill="none" stroke="black" d="M249.666,-372.909C247.124,-364.292 244.013,-353.74 241.114,-343.907"/>
<polygon fill="black" stroke="black" points="244.387,-342.633 238.201,-334.031 237.673,-344.612 244.387,-342.633"/>
</g>
<!-- watch_tower -->
<g id="node16" class="node"><title>watch_tower</title>
<polygon fill="none" stroke="green" points="408,-409 300,-409 300,-373 408,-373 408,-409"/>
<text text-anchor="middle" x="354" y="-387.4" font-family="Times Roman,serif" font-size="14.00">watch_tower</text>
</g>
<!-- watch_tower&#45;&gt;security -->
<g id="edge37" class="edge"><title>watch_tower&#45;&gt;security</title>
<path fill="none" stroke="black" d="M325.704,-372.909C309.76,-362.715 289.582,-349.815 272.039,-338.599"/>
<polygon fill="black" stroke="black" points="273.452,-335.348 263.141,-332.91 269.681,-341.245 273.452,-335.348"/>
</g>
<!-- way_post -->
<g id="node17" class="node"><title>way_post</title>
<polygon fill="none" stroke="green" points="508,-409 426,-409 426,-373 508,-373 508,-409"/>
<text text-anchor="middle" x="467" y="-387.4" font-family="Times Roman,serif" font-size="14.00">way_post</text>
</g>
<!-- way_post&#45;&gt;recruit -->
<g id="edge79" class="edge"><title>way_post&#45;&gt;recruit</title>
<path fill="none" stroke="black" d="M462.085,-409.049C452.435,-445.53 431.315,-530.8 424,-604 413.168,-712.393 431,-740.067 431,-849 431,-1002 431,-1002 431,-1002 431,-1045.49 420.337,-1066.19 450,-1098 511.458,-1163.91 789.052,-1209.26 894.862,-1224.43"/>
<polygon fill="black" stroke="black" points="894.454,-1227.91 904.846,-1225.84 895.436,-1220.97 894.454,-1227.91"/>
</g>
<!-- relations -->
<g id="node45" class="node"><title>relations</title>
<polygon fill="none" stroke="black" points="752.054,-313 721.027,-334.229 658.973,-334.229 627.946,-313 658.973,-291.771 721.027,-291.771 752.054,-313"/>
<text text-anchor="middle" x="690" y="-309.4" font-family="Times Roman,serif" font-size="14.00">relations</text>
</g>
<!-- way_post&#45;&gt;relations -->
<g id="edge191" class="edge"><title>way_post&#45;&gt;relations</title>
<path fill="none" stroke="black" d="M508.097,-373.435C511.099,-372.245 514.09,-371.089 517,-370 556.897,-355.076 602.706,-340.076 637.159,-329.212"/>
<polygon fill="black" stroke="black" points="638.52,-332.453 647.014,-326.119 636.425,-325.774 638.52,-332.453"/>
</g>
<!-- trading_post -->
<g id="node18" class="node"><title>trading_post</title>
<polygon fill="none" stroke="green" points="777,-718 675,-718 675,-682 777,-682 777,-718"/>
<text text-anchor="middle" x="726" y="-696.4" font-family="Times Roman,serif" font-size="14.00">trading_post</text>
</g>
<!-- trading_post&#45;&gt;relations -->
<g id="edge189" class="edge"><title>trading_post&#45;&gt;relations</title>
<path fill="none" stroke="black" d="M723.931,-681.757C719.835,-645.335 710.526,-561 704,-490 699.321,-439.093 694.829,-379.861 692.245,-344.454"/>
<polygon fill="black" stroke="black" points="695.721,-343.987 691.506,-334.266 688.739,-344.493 695.721,-343.987"/>
</g>
<!-- pigs -->
<g id="node49" class="node"><title>pigs</title>
<polygon fill="none" stroke="magenta" points="822.926,-625 804.963,-646.229 769.037,-646.229 751.074,-625 769.037,-603.771 804.963,-603.771 822.926,-625"/>
<text text-anchor="middle" x="787" y="-621.4" font-family="Times Roman,serif" font-size="14.00">pigs</text>
</g>
<!-- trading_post&#45;&gt;pigs -->
<g id="edge43" class="edge"><title>trading_post&#45;&gt;pigs</title>
<path fill="none" stroke="black" d="M740.766,-681.845C747.53,-673.529 755.714,-663.466 763.306,-654.132"/>
<polygon fill="black" stroke="black" points="766.18,-656.145 769.775,-646.179 760.749,-651.728 766.18,-656.145"/>
</g>
<!-- goats -->
<g id="node50" class="node"><title>goats</title>
<polygon fill="none" stroke="magenta" points="927.091,-547 905.045,-568.229 860.955,-568.229 838.909,-547 860.955,-525.771 905.045,-525.771 927.091,-547"/>
<text text-anchor="middle" x="883" y="-543.4" font-family="Times Roman,serif" font-size="14.00">goats</text>
</g>
<!-- trading_post&#45;&gt;goats -->
<g id="edge45" class="edge"><title>trading_post&#45;&gt;goats</title>
<path fill="none" stroke="black" d="M776.82,-681.893C795.841,-673.245 816.558,-661.372 832,-646 851.163,-626.924 864.609,-599.145 872.865,-577.864"/>
<polygon fill="black" stroke="black" points="876.215,-578.897 876.4,-568.303 869.649,-576.469 876.215,-578.897"/>
</g>
<!-- chickens -->
<g id="node51" class="node"><title>chickens</title>
<polygon fill="none" stroke="magenta" points="835.237,-469 804.619,-490.229 743.381,-490.229 712.763,-469 743.381,-447.771 804.619,-447.771 835.237,-469"/>
<text text-anchor="middle" x="774" y="-465.4" font-family="Times Roman,serif" font-size="14.00">chickens</text>
</g>
<!-- trading_post&#45;&gt;chickens -->
<g id="edge47" class="edge"><title>trading_post&#45;&gt;chickens</title>
<path fill="none" stroke="black" d="M725.221,-681.988C724.36,-649.86 724.922,-580.891 742,-526 744.872,-516.769 749.376,-507.37 754.108,-498.936"/>
<polygon fill="black" stroke="black" points="757.186,-500.607 759.265,-490.218 751.161,-497.043 757.186,-500.607"/>
</g>
<!-- pig_pen -->
<g id="node19" class="node"><title>pig_pen</title>
<polygon fill="none" stroke="green" points="821,-565 751,-565 751,-529 821,-529 821,-565"/>
<text text-anchor="middle" x="786" y="-543.4" font-family="Times Roman,serif" font-size="14.00">pig_pen</text>
</g>
<!-- pig_pen&#45;&gt;food -->
<g id="edge27" class="edge"><title>pig_pen&#45;&gt;food</title>
<path fill="none" stroke="black" d="M821.473,-529.889C824.35,-528.556 827.219,-527.246 830,-526 863.191,-511.135 901.423,-495.216 928.881,-483.99"/>
<polygon fill="black" stroke="black" points="930.542,-487.093 938.481,-480.077 927.899,-480.61 930.542,-487.093"/>
</g>
<!-- pig_pen&#45;&gt;stable_food -->
<g id="edge183" class="edge"><title>pig_pen&#45;&gt;stable_food</title>
<path fill="none" stroke="black" d="M809.439,-528.873C821.295,-518.611 835.034,-504.872 844,-490 851.637,-477.331 875.787,-391.019 888.687,-343.771"/>
<polygon fill="black" stroke="black" points="892.084,-344.614 891.334,-334.046 885.33,-342.775 892.084,-344.614"/>
</g>
<!-- goat_pen -->
<g id="node20" class="node"><title>goat_pen</title>
<polygon fill="none" stroke="green" points="971,-409 891,-409 891,-373 971,-373 971,-409"/>
<text text-anchor="middle" x="931" y="-387.4" font-family="Times Roman,serif" font-size="14.00">goat_pen</text>
</g>
<!-- goat_pen&#45;&gt;food -->
<g id="edge29" class="edge"><title>goat_pen&#45;&gt;food</title>
<path fill="none" stroke="black" d="M939.129,-409.115C943.045,-417.844 947.85,-428.551 952.308,-438.487"/>
<polygon fill="black" stroke="black" points="949.149,-439.995 956.436,-447.686 955.535,-437.13 949.149,-439.995"/>
</g>
<!-- goat_pen&#45;&gt;stable_food -->
<g id="edge185" class="edge"><title>goat_pen&#45;&gt;stable_food</title>
<path fill="none" stroke="black" d="M923.114,-372.909C919.279,-364.11 914.565,-353.295 910.202,-343.287"/>
<polygon fill="black" stroke="black" points="913.372,-341.799 906.167,-334.031 906.955,-344.596 913.372,-341.799"/>
</g>
<!-- chicken_shed -->
<g id="node21" class="node"><title>chicken_shed</title>
<polygon fill="none" stroke="green" points="828,-409 720,-409 720,-373 828,-373 828,-409"/>
<text text-anchor="middle" x="774" y="-387.4" font-family="Times Roman,serif" font-size="14.00">chicken_shed</text>
</g>
<!-- chicken_shed&#45;&gt;food -->
<g id="edge31" class="edge"><title>chicken_shed&#45;&gt;food</title>
<path fill="none" stroke="black" d="M818.512,-409.083C852.1,-422.728 897.629,-441.224 929.178,-454.041"/>
<polygon fill="black" stroke="black" points="927.909,-457.303 938.491,-457.825 930.544,-450.818 927.909,-457.303"/>
</g>
<!-- chicken_shed&#45;&gt;stable_food -->
<g id="edge187" class="edge"><title>chicken_shed&#45;&gt;stable_food</title>
<path fill="none" stroke="black" d="M802.528,-372.909C818.12,-363.022 837.726,-350.589 855.03,-339.615"/>
<polygon fill="black" stroke="black" points="857.265,-342.342 863.836,-334.031 853.516,-336.431 857.265,-342.342"/>
</g>
<!-- shanty -->
<g id="node22" class="node"><title>shanty</title>
<polygon fill="none" stroke="green" points="590,-409 526,-409 526,-373 590,-373 590,-409"/>
<text text-anchor="middle" x="558" y="-387.4" font-family="Times Roman,serif" font-size="14.00">shanty</text>
</g>
<!-- house -->
<g id="node23" class="node"><title>house</title>
<polygon fill="none" stroke="green" points="1228,-409 1170,-409 1170,-373 1228,-373 1228,-409"/>
<text text-anchor="middle" x="1199" y="-387.4" font-family="Times Roman,serif" font-size="14.00">house</text>
</g>
<!-- house&#45;&gt;preach -->
<g id="edge81" class="edge"><title>house&#45;&gt;preach</title>
<path fill="none" stroke="black" d="M1227.76,-372.909C1244.93,-362.109 1266.93,-348.27 1285.46,-336.615"/>
<polygon fill="black" stroke="black" points="1287.37,-339.55 1293.97,-331.263 1283.64,-333.625 1287.37,-339.55"/>
</g>
<!-- house&#45;&gt;strip -->
<g id="edge83" class="edge"><title>house&#45;&gt;strip</title>
<path fill="none" stroke="black" d="M1189.72,-372.909C1184.76,-363.233 1178.55,-351.118 1173.01,-340.319"/>
<polygon fill="black" stroke="black" points="1176.04,-338.564 1168.37,-331.263 1169.81,-341.758 1176.04,-338.564"/>
</g>
<!-- house&#45;&gt;bartend -->
<g id="edge85" class="edge"><title>house&#45;&gt;bartend</title>
<path fill="none" stroke="black" d="M1208.28,-372.909C1213.24,-363.233 1219.45,-351.118 1224.99,-340.319"/>
<polygon fill="black" stroke="black" points="1228.19,-341.758 1229.63,-331.263 1221.96,-338.564 1228.19,-341.758"/>
</g>
<!-- field -->
<g id="node24" class="node"><title>field</title>
<polygon fill="none" stroke="green" points="1045,-718 991,-718 991,-682 1045,-682 1045,-718"/>
<text text-anchor="middle" x="1018" y="-696.4" font-family="Times Roman,serif" font-size="14.00">field</text>
</g>
<!-- field&#45;&gt;farm -->
<g id="edge97" class="edge"><title>field&#45;&gt;farm</title>
<path fill="none" stroke="black" d="M1039.54,-681.845C1050.94,-672.243 1065.1,-660.311 1077.5,-649.861"/>
<polygon fill="black" stroke="black" points="1079.95,-652.369 1085.35,-643.248 1075.44,-647.016 1079.95,-652.369"/>
</g>
<!-- garden -->
<g id="node25" class="node"><title>garden</title>
<polygon fill="none" stroke="green" points="973,-718 909,-718 909,-682 973,-682 973,-718"/>
<text text-anchor="middle" x="941" y="-696.4" font-family="Times Roman,serif" font-size="14.00">garden</text>
</g>
<!-- garden&#45;&gt;farm -->
<g id="edge95" class="edge"><title>garden&#45;&gt;farm</title>
<path fill="none" stroke="black" d="M973.006,-685.539C1000.85,-672.957 1041.21,-654.725 1070.35,-641.561"/>
<polygon fill="black" stroke="black" points="1072.09,-644.613 1079.76,-637.306 1069.21,-638.234 1072.09,-644.613"/>
</g>
<!-- fuel&#45;&gt;car -->
<g id="edge195" class="edge"><title>fuel&#45;&gt;car</title>
<path fill="none" stroke="black" d="M1318.55,-447.686C1318.75,-439.798 1318.98,-430.684 1319.2,-422.103"/>
<polygon fill="black" stroke="black" points="1322.7,-422.104 1319.46,-412.018 1315.71,-421.925 1322.7,-422.104"/>
</g>
<!-- not_dying -->
<g id="node46" class="node"><title>not_dying</title>
<polygon fill="none" stroke="black" points="246.903,-235 212.451,-256.229 143.549,-256.229 109.097,-235 143.549,-213.771 212.451,-213.771 246.903,-235"/>
<text text-anchor="middle" x="178" y="-231.4" font-family="Times Roman,serif" font-size="14.00">not_dying</text>
</g>
<!-- ammo&#45;&gt;not_dying -->
<g id="edge177" class="edge"><title>ammo&#45;&gt;not_dying</title>
<path fill="none" stroke="black" d="M51.5905,-447.99C58.3403,-413.058 75.46,-341.944 110,-292 117.536,-281.103 127.684,-271.094 137.838,-262.607"/>
<polygon fill="black" stroke="black" points="140.305,-265.115 145.933,-256.138 135.936,-259.647 140.305,-265.115"/>
</g>
<!-- metal&#45;&gt;wall -->
<g id="edge143" class="edge"><title>metal&#45;&gt;wall</title>
<path fill="none" stroke="black" d="M299.331,-447.686C291.946,-438.242 283.187,-427.042 275.413,-417.103"/>
<polygon fill="black" stroke="black" points="278.085,-414.836 269.167,-409.115 272.571,-419.149 278.085,-414.836"/>
</g>
<!-- metal&#45;&gt;watch_tower -->
<g id="edge147" class="edge"><title>metal&#45;&gt;watch_tower</title>
<path fill="none" stroke="black" d="M326.384,-447.686C330.801,-438.62 336.006,-427.936 340.699,-418.301"/>
<polygon fill="black" stroke="black" points="343.941,-419.638 345.175,-409.115 337.648,-416.572 343.941,-419.638"/>
</g>
<!-- wood&#45;&gt;fence -->
<g id="edge139" class="edge"><title>wood&#45;&gt;fence</title>
<path fill="none" stroke="black" d="M591.395,-447.686C598.66,-438.242 607.275,-427.042 614.921,-417.103"/>
<polygon fill="black" stroke="black" points="617.742,-419.176 621.065,-409.115 612.194,-414.908 617.742,-419.176"/>
</g>
<!-- wood&#45;&gt;wall -->
<g id="edge141" class="edge"><title>wood&#45;&gt;wall</title>
<path fill="none" stroke="black" d="M534.803,-465.151C480.624,-459.06 381.515,-444.726 291.565,-411.613"/>
<polygon fill="black" stroke="black" points="292.644,-408.279 282.052,-408.026 290.174,-414.829 292.644,-408.279"/>
</g>
<!-- wood&#45;&gt;watch_tower -->
<g id="edge145" class="edge"><title>wood&#45;&gt;watch_tower</title>
<path fill="none" stroke="black" d="M542.391,-457.491C508.932,-445.682 456.09,-427.032 414.873,-412.485"/>
<polygon fill="black" stroke="black" points="415.796,-409.099 405.201,-409.071 413.466,-415.7 415.796,-409.099"/>
</g>
<!-- wood&#45;&gt;way_post -->
<g id="edge159" class="edge"><title>wood&#45;&gt;way_post</title>
<path fill="none" stroke="black" d="M549.679,-450.712C535.055,-440.151 516.477,-426.733 500.638,-415.294"/>
<polygon fill="black" stroke="black" points="502.319,-412.191 492.163,-409.173 498.22,-417.865 502.319,-412.191"/>
</g>
<!-- wood&#45;&gt;trading_post -->
<g id="edge161" class="edge"><title>wood&#45;&gt;trading_post</title>
<path fill="none" stroke="black" d="M583.953,-490.094C599.1,-524.54 631.974,-594.211 671,-646 678.676,-656.186 688.26,-666.273 697.267,-674.922"/>
<polygon fill="black" stroke="black" points="694.949,-677.546 704.644,-681.82 699.73,-672.433 694.949,-677.546"/>
</g>
<!-- wood&#45;&gt;pig_pen -->
<g id="edge149" class="edge"><title>wood&#45;&gt;pig_pen</title>
<path fill="none" stroke="black" d="M606.973,-480.819C642.706,-494.029 700.825,-515.513 741.106,-530.404"/>
<polygon fill="black" stroke="black" points="740.09,-533.76 750.683,-533.945 742.517,-527.194 740.09,-533.76"/>
</g>
<!-- wood&#45;&gt;goat_pen -->
<g id="edge151" class="edge"><title>wood&#45;&gt;goat_pen</title>
<path fill="none" stroke="black" d="M611.037,-461.226C661.559,-450.313 756.311,-429.79 837,-412 851.191,-408.871 866.581,-405.446 880.719,-402.287"/>
<polygon fill="black" stroke="black" points="881.762,-405.641 890.757,-400.042 880.234,-398.809 881.762,-405.641"/>
</g>
<!-- wood&#45;&gt;chicken_shed -->
<g id="edge153" class="edge"><title>wood&#45;&gt;chicken_shed</title>
<path fill="none" stroke="black" d="M606.532,-456.641C636.512,-444.89 682.262,-426.958 718.373,-412.804"/>
<polygon fill="black" stroke="black" points="719.771,-416.015 727.804,-409.107 717.216,-409.498 719.771,-416.015"/>
</g>
<!-- wood&#45;&gt;shanty -->
<g id="edge157" class="edge"><title>wood&#45;&gt;shanty</title>
<path fill="none" stroke="black" d="M570.355,-447.686C568.42,-438.809 566.147,-428.38 564.082,-418.905"/>
<polygon fill="black" stroke="black" points="567.498,-418.141 561.948,-409.115 560.658,-419.631 567.498,-418.141"/>
</g>
<!-- wood&#45;&gt;house -->
<g id="edge155" class="edge"><title>wood&#45;&gt;house</title>
<path fill="none" stroke="black" d="M612.468,-462.426C638.176,-458.032 673.097,-452.292 704,-448 873.267,-424.49 1076.06,-403.321 1159.84,-394.881"/>
<polygon fill="black" stroke="black" points="1160.33,-398.35 1169.93,-393.868 1159.63,-391.385 1160.33,-398.35"/>
</g>
<!-- food&#45;&gt;characters -->
<g id="edge15" class="edge"><title>food&#45;&gt;characters</title>
<path fill="none" stroke="black" d="M979.12,-490.212C1007.69,-538.496 1073,-661.097 1073,-773 1073,-1002 1073,-1002 1073,-1002 1073,-1045.49 1064.97,-1063.93 1092,-1098 1108,-1118.17 1132.7,-1131.44 1156.01,-1140.06"/>
<polygon fill="black" stroke="black" points="1154.94,-1143.39 1165.54,-1143.36 1157.23,-1136.78 1154.94,-1143.39"/>
</g>
<!-- labour -->
<g id="node39" class="node"><title>labour</title>
<polygon fill="none" stroke="black" points="1466.99,-1077 1442.49,-1098.23 1393.51,-1098.23 1369.01,-1077 1393.51,-1055.77 1442.49,-1055.77 1466.99,-1077"/>
<text text-anchor="middle" x="1418" y="-1073.4" font-family="Times Roman,serif" font-size="14.00">labour</text>
</g>
<!-- characters&#45;&gt;labour -->
<g id="edge67" class="edge"><title>characters&#45;&gt;labour</title>
<path fill="none" stroke="black" d="M1261.89,-1137.88C1295.38,-1124.82 1341.28,-1106.92 1374.64,-1093.91"/>
<polygon fill="black" stroke="black" points="1376.08,-1097.1 1384.13,-1090.21 1373.54,-1090.58 1376.08,-1097.1"/>
</g>
<!-- knowledge -->
<g id="node40" class="node"><title>knowledge</title>
<polygon fill="none" stroke="black" points="1673.12,-1077 1635.56,-1098.23 1560.44,-1098.23 1522.88,-1077 1560.44,-1055.77 1635.56,-1055.77 1673.12,-1077"/>
<text text-anchor="middle" x="1598" y="-1073.4" font-family="Times Roman,serif" font-size="14.00">knowledge</text>
</g>
<!-- characters&#45;&gt;knowledge -->
<g id="edge69" class="edge"><title>characters&#45;&gt;knowledge</title>
<path fill="none" stroke="black" d="M1273.1,-1144.86C1331.72,-1133.92 1427.1,-1115.68 1509,-1098 1517.57,-1096.15 1526.58,-1094.12 1535.45,-1092.08"/>
<polygon fill="black" stroke="black" points="1536.42,-1095.45 1545.37,-1089.77 1534.83,-1088.63 1536.42,-1095.45"/>
</g>
<!-- combat -->
<g id="node41" class="node"><title>combat</title>
<polygon fill="none" stroke="black" points="1799.2,-1077 1772.1,-1098.23 1717.9,-1098.23 1690.8,-1077 1717.9,-1055.77 1772.1,-1055.77 1799.2,-1077"/>
<text text-anchor="middle" x="1745" y="-1073.4" font-family="Times Roman,serif" font-size="14.00">combat</text>
</g>
<!-- characters&#45;&gt;combat -->
<g id="edge71" class="edge"><title>characters&#45;&gt;combat</title>
<path fill="none" stroke="black" d="M1283.64,-1151.08C1374.18,-1144.73 1542.07,-1129.58 1682,-1098 1687.34,-1096.79 1692.87,-1095.31 1698.33,-1093.7"/>
<polygon fill="black" stroke="black" points="1699.53,-1096.99 1708.04,-1090.69 1697.45,-1090.31 1699.53,-1096.99"/>
</g>
<!-- population -->
<g id="node43" class="node"><title>population</title>
<polygon fill="none" stroke="black" points="1856.17,-849 1820.08,-870.229 1747.92,-870.229 1711.83,-849 1747.92,-827.771 1820.08,-827.771 1856.17,-849"/>
<text text-anchor="middle" x="1784" y="-845.4" font-family="Times Roman,serif" font-size="14.00">population</text>
</g>
<!-- characters&#45;&gt;population -->
<g id="edge179" class="edge"><title>characters&#45;&gt;population</title>
<path fill="none" stroke="black" d="M1285.05,-1151.96C1455.74,-1143.9 1894.78,-1121.02 1916,-1098 1978.86,-1029.79 1876.23,-926.05 1818.74,-876.811"/>
<polygon fill="black" stroke="black" points="1820.85,-874.011 1810.95,-870.234 1816.33,-879.359 1820.85,-874.011"/>
</g>
<!-- mechanic -->
<g id="node53" class="node"><title>mechanic</title>
<polygon fill="none" stroke="blue" points="1351.14,-1077 1318.07,-1098.23 1251.93,-1098.23 1218.86,-1077 1251.93,-1055.77 1318.07,-1055.77 1351.14,-1077"/>
<text text-anchor="middle" x="1285" y="-1073.4" font-family="Times Roman,serif" font-size="14.00">mechanic</text>
</g>
<!-- characters&#45;&gt;mechanic -->
<g id="edge63" class="edge"><title>characters&#45;&gt;mechanic</title>
<path fill="none" stroke="black" d="M1236.31,-1133.69C1243.68,-1125.1 1252.3,-1115.07 1260.22,-1105.85"/>
<polygon fill="black" stroke="black" points="1263.09,-1107.88 1266.95,-1098.02 1257.78,-1103.32 1263.09,-1107.88"/>
</g>
<!-- forager -->
<g id="node54" class="node"><title>forager</title>
<polygon fill="none" stroke="blue" points="566.889,-1077 539.944,-1098.23 486.056,-1098.23 459.111,-1077 486.056,-1055.77 539.944,-1055.77 566.889,-1077"/>
<text text-anchor="middle" x="513" y="-1073.4" font-family="Times Roman,serif" font-size="14.00">forager</text>
</g>
<!-- characters&#45;&gt;forager -->
<g id="edge65" class="edge"><title>characters&#45;&gt;forager</title>
<path fill="none" stroke="black" d="M1152.02,-1151.18C1040.65,-1144.19 808.503,-1127.31 614,-1098 597.874,-1095.57 580.442,-1092.21 564.674,-1088.89"/>
<polygon fill="black" stroke="black" points="565.093,-1085.4 554.582,-1086.73 563.625,-1092.25 565.093,-1085.4"/>
</g>
<!-- farmer -->
<g id="node55" class="node"><title>farmer</title>
<polygon fill="none" stroke="blue" points="1201.12,-1077 1176.06,-1098.23 1125.94,-1098.23 1100.88,-1077 1125.94,-1055.77 1176.06,-1055.77 1201.12,-1077"/>
<text text-anchor="middle" x="1151" y="-1073.4" font-family="Times Roman,serif" font-size="14.00">farmer</text>
</g>
<!-- characters&#45;&gt;farmer -->
<g id="edge99" class="edge"><title>characters&#45;&gt;farmer</title>
<path fill="none" stroke="black" d="M1199.69,-1133.69C1192.32,-1125.1 1183.7,-1115.07 1175.78,-1105.85"/>
<polygon fill="black" stroke="black" points="1178.22,-1103.32 1169.05,-1098.02 1172.91,-1107.88 1178.22,-1103.32"/>
</g>
<!-- medic -->
<g id="node56" class="node"><title>medic</title>
<polygon fill="none" stroke="blue" points="1907.22,-1077 1884.61,-1098.23 1839.39,-1098.23 1816.78,-1077 1839.39,-1055.77 1884.61,-1055.77 1907.22,-1077"/>
<text text-anchor="middle" x="1862" y="-1073.4" font-family="Times Roman,serif" font-size="14.00">medic</text>
</g>
<!-- characters&#45;&gt;medic -->
<g id="edge101" class="edge"><title>characters&#45;&gt;medic</title>
<path fill="none" stroke="black" d="M1283.36,-1150.95C1415.41,-1142.41 1709.76,-1121.37 1808,-1098 1812.41,-1096.95 1816.95,-1095.62 1821.42,-1094.14"/>
<polygon fill="black" stroke="black" points="1822.81,-1097.36 1831.05,-1090.71 1820.46,-1090.76 1822.81,-1097.36"/>
</g>
<!-- construction -->
<g id="node57" class="node"><title>construction</title>
<polygon fill="none" stroke="blue" points="788.784,-1077 747.392,-1098.23 664.608,-1098.23 623.216,-1077 664.608,-1055.77 747.392,-1055.77 788.784,-1077"/>
<text text-anchor="middle" x="706" y="-1073.4" font-family="Times Roman,serif" font-size="14.00">construction</text>
</g>
<!-- characters&#45;&gt;construction -->
<g id="edge103" class="edge"><title>characters&#45;&gt;construction</title>
<path fill="none" stroke="black" d="M1156.87,-1148.44C1074.87,-1139.25 924.882,-1121.04 798,-1098 789.658,-1096.49 780.93,-1094.72 772.311,-1092.88"/>
<polygon fill="black" stroke="black" points="772.791,-1089.4 762.275,-1090.68 771.296,-1096.24 772.791,-1089.4"/>
</g>
<!-- veteran -->
<g id="node58" class="node"><title>veteran</title>
<polygon fill="none" stroke="blue" points="922.971,-1077 893.986,-1098.23 836.014,-1098.23 807.029,-1077 836.014,-1055.77 893.986,-1055.77 922.971,-1077"/>
<text text-anchor="middle" x="865" y="-1073.4" font-family="Times Roman,serif" font-size="14.00">veteran</text>
</g>
<!-- characters&#45;&gt;veteran -->
<g id="edge73" class="edge"><title>characters&#45;&gt;veteran</title>
<path fill="none" stroke="black" d="M1161.7,-1145.62C1103.73,-1135.53 1010.97,-1118.18 932,-1098 926.401,-1096.57 920.578,-1094.95 914.807,-1093.26"/>
<polygon fill="black" stroke="black" points="915.774,-1089.89 905.19,-1090.36 913.758,-1096.6 915.774,-1089.89"/>
</g>
<!-- welder -->
<g id="node59" class="node"><title>welder</title>
<polygon fill="none" stroke="blue" points="1044.76,-1077 1018.88,-1098.23 967.121,-1098.23 941.242,-1077 967.121,-1055.77 1018.88,-1055.77 1044.76,-1077"/>
<text text-anchor="middle" x="993" y="-1073.4" font-family="Times Roman,serif" font-size="14.00">welder</text>
</g>
<!-- characters&#45;&gt;welder -->
<g id="edge75" class="edge"><title>characters&#45;&gt;welder</title>
<path fill="none" stroke="black" d="M1172.47,-1139.22C1133.64,-1125.76 1078.08,-1106.49 1039.09,-1092.98"/>
<polygon fill="black" stroke="black" points="1040.15,-1089.64 1029.56,-1089.67 1037.86,-1096.26 1040.15,-1089.64"/>
</g>
<!-- danger -->
<g id="node36" class="node"><title>danger</title>
<polygon fill="none" stroke="red" points="257.072,-849 230.536,-870.229 177.464,-870.229 150.928,-849 177.464,-827.771 230.536,-827.771 257.072,-849"/>
<text text-anchor="middle" x="204" y="-845.4" font-family="Times Roman,serif" font-size="14.00">danger</text>
</g>
<!-- security&#45;&gt;danger -->
<g id="edge35" class="edge"><title>security&#45;&gt;danger</title>
<path fill="none" stroke="black" d="M224.819,-334.166C215.384,-363.907 200,-419.926 200,-469 200,-700 200,-700 200,-700 200,-740.563 201.5,-787.315 202.662,-817.469"/>
<polygon fill="black" stroke="black" points="199.178,-817.932 203.072,-827.785 206.173,-817.654 199.178,-817.932"/>
</g>
<!-- security&#45;&gt;not_dying -->
<g id="edge173" class="edge"><title>security&#45;&gt;not_dying</title>
<path fill="none" stroke="black" d="M217.244,-291.686C211.423,-283.277 204.638,-273.477 198.363,-264.413"/>
<polygon fill="black" stroke="black" points="201.121,-262.248 192.551,-256.018 195.365,-266.232 201.121,-262.248"/>
</g>
<!-- danger&#45;&gt;not_dying -->
<g id="edge175" class="edge"><title>danger&#45;&gt;not_dying</title>
<path fill="none" stroke="black" d="M194.35,-827.906C173.073,-779.402 124,-655.749 124,-547 124,-547 124,-547 124,-391 124,-345.287 144.962,-295.98 160.766,-265.302"/>
<polygon fill="black" stroke="black" points="163.891,-266.879 165.476,-256.404 157.704,-263.605 163.891,-266.879"/>
</g>
<!-- low_danger -->
<g id="node113" class="node"><title>low_danger</title>
<ellipse fill="none" stroke="black" cx="686" cy="-773" rx="68.0887" ry="18.3848"/>
<text text-anchor="middle" x="686" y="-769.4" font-family="Times Roman,serif" font-size="14.00">low_danger</text>
</g>
<!-- danger&#45;&gt;low_danger -->
<g id="edge135" class="edge"><title>danger&#45;&gt;low_danger</title>
<path fill="none" stroke="black" d="M248.481,-841.986C332.749,-828.699 516.203,-799.773 616.721,-783.924"/>
<polygon fill="black" stroke="black" points="617.444,-787.353 626.777,-782.338 616.354,-780.438 617.444,-787.353"/>
</g>
<!-- threat_level -->
<g id="node37" class="node"><title>threat_level</title>
<polygon fill="none" stroke="red" points="284.833,-927 244.417,-948.229 163.583,-948.229 123.167,-927 163.583,-905.771 244.417,-905.771 284.833,-927"/>
<text text-anchor="middle" x="204" y="-923.4" font-family="Times Roman,serif" font-size="14.00">threat_level</text>
</g>
<!-- threat_level&#45;&gt;danger -->
<g id="edge137" class="edge"><title>threat_level&#45;&gt;danger</title>
<path fill="none" stroke="black" d="M204,-905.686C204,-897.798 204,-888.684 204,-880.103"/>
<polygon fill="black" stroke="black" points="207.5,-880.018 204,-870.018 200.5,-880.018 207.5,-880.018"/>
</g>
<!-- activity&#45;&gt;danger -->
<g id="edge193" class="edge"><title>activity&#45;&gt;danger</title>
<path fill="none" stroke="black" d="M1235.62,-923.368C1057.02,-910.493 454.486,-867.057 262.964,-853.251"/>
<polygon fill="black" stroke="black" points="263.041,-849.747 252.816,-852.519 262.538,-856.729 263.041,-849.747"/>
</g>
<!-- happiness -->
<g id="node42" class="node"><title>happiness</title>
<polygon fill="none" stroke="black" points="1184.9,-157 1150.45,-178.229 1081.55,-178.229 1047.1,-157 1081.55,-135.771 1150.45,-135.771 1184.9,-157"/>
<text text-anchor="middle" x="1116" y="-153.4" font-family="Times Roman,serif" font-size="14.00">happiness</text>
</g>
<!-- happiness&#45;&gt;victory -->
<g id="edge163" class="edge"><title>happiness&#45;&gt;victory</title>
<path fill="none" stroke="black" d="M1077.35,-138.117C1042.11,-120.899 989.711,-95.2972 950.462,-76.1206"/>
<polygon fill="black" stroke="black" points="951.813,-72.8852 941.291,-71.64 948.74,-79.1746 951.813,-72.8852"/>
</g>
<!-- population&#45;&gt;victory -->
<g id="edge165" class="edge"><title>population&#45;&gt;victory</title>
<path fill="none" stroke="black" d="M1748.57,-827.782C1711.3,-802.468 1658,-756.406 1658,-700 1658,-700 1658,-700 1658,-235 1658,-90.703 1134.86,-58.5087 956.07,-51.7194"/>
<polygon fill="black" stroke="black" points="956.175,-48.221 946.053,-51.3521 955.918,-55.2163 956.175,-48.221"/>
</g>
<!-- stable_food&#45;&gt;victory -->
<g id="edge167" class="edge"><title>stable_food&#45;&gt;victory</title>
<path fill="none" stroke="black" d="M897,-291.922C897,-252.826 897,-167.774 897,-109.687"/>
<polygon fill="black" stroke="black" points="900.5,-109.531 897,-99.531 893.5,-109.531 900.5,-109.531"/>
</g>
<!-- relations&#45;&gt;victory -->
<g id="edge169" class="edge"><title>relations&#45;&gt;victory</title>
<path fill="none" stroke="black" d="M706.59,-291.922C739.759,-249.779 814.957,-154.238 860.297,-96.6318"/>
<polygon fill="black" stroke="black" points="863.055,-98.7873 866.489,-88.7646 857.554,-94.4579 863.055,-98.7873"/>
</g>
<!-- not_dying&#45;&gt;victory -->
<g id="edge171" class="edge"><title>not_dying&#45;&gt;victory</title>
<path fill="none" stroke="black" d="M226.855,-222.43C355.284,-189.385 701.941,-100.189 839.56,-64.7794"/>
<polygon fill="black" stroke="black" points="840.68,-68.1053 849.492,-62.2238 838.936,-61.3261 840.68,-68.1053"/>
</g>
<!-- pigs&#45;&gt;pig_pen -->
<g id="edge21" class="edge"><title>pigs&#45;&gt;pig_pen</title>
<path fill="none" stroke="black" d="M786.727,-603.686C786.614,-594.903 786.482,-584.602 786.362,-575.207"/>
<polygon fill="black" stroke="black" points="789.86,-575.07 786.232,-565.115 782.861,-575.159 789.86,-575.07"/>
</g>
<!-- goats&#45;&gt;goat_pen -->
<g id="edge23" class="edge"><title>goats&#45;&gt;goat_pen</title>
<path fill="none" stroke="black" d="M889.473,-525.961C897.98,-498.315 912.946,-449.676 922.397,-418.958"/>
<polygon fill="black" stroke="black" points="925.778,-419.871 925.374,-409.284 919.088,-417.813 925.778,-419.871"/>
</g>
<!-- chickens&#45;&gt;chicken_shed -->
<g id="edge25" class="edge"><title>chickens&#45;&gt;chicken_shed</title>
<path fill="none" stroke="black" d="M774,-447.686C774,-438.903 774,-428.602 774,-419.207"/>
<polygon fill="black" stroke="black" points="777.5,-419.115 774,-409.115 770.5,-419.115 777.5,-419.115"/>
</g>
<!-- mechanic&#45;&gt;repair_car -->
<g id="edge17" class="edge"><title>mechanic&#45;&gt;repair_car</title>
<path fill="none" stroke="black" d="M1293.52,-1055.71C1296.79,-1047.53 1300.57,-1038.07 1304.04,-1029.4"/>
<polygon fill="black" stroke="black" points="1307.32,-1030.63 1307.78,-1020.04 1300.82,-1028.03 1307.32,-1030.63"/>
</g>
<!-- forager&#45;&gt;scavenge -->
<g id="edge49" class="edge"><title>forager&#45;&gt;scavenge</title>
<path fill="none" stroke="black" d="M510.445,-1055.71C509.495,-1047.79 508.402,-1038.68 507.389,-1030.24"/>
<polygon fill="black" stroke="black" points="510.832,-1029.55 506.165,-1020.04 503.881,-1030.39 510.832,-1029.55"/>
</g>
<!-- farmer&#45;&gt;farm -->
<g id="edge105" class="edge"><title>farmer&#45;&gt;farm</title>
<path fill="none" stroke="black" d="M1141.52,-1055.62C1129.69,-1026.94 1111,-974.165 1111,-927 1111,-927 1111,-927 1111,-773 1111,-731.336 1109.4,-683.098 1108.22,-653.315"/>
<polygon fill="black" stroke="black" points="1111.71,-653.073 1107.81,-643.223 1104.72,-653.357 1111.71,-653.073"/>
</g>
<!-- farmer&#45;&gt;oversee_farms -->
<g id="edge107" class="edge"><title>farmer&#45;&gt;oversee_farms</title>
<path fill="none" stroke="black" d="M1164.06,-1055.71C1169.18,-1047.35 1175.13,-1037.66 1180.54,-1028.84"/>
<polygon fill="black" stroke="black" points="1183.69,-1030.4 1185.93,-1020.04 1177.72,-1026.74 1183.69,-1030.4"/>
</g>
<!-- entertainment&#45;&gt;characters -->
<g id="edge77" class="edge"><title>entertainment&#45;&gt;characters</title>
<path fill="none" stroke="black" d="M1305.59,-245.885C1381.44,-262.527 1495,-302.261 1495,-391 1495,-1002 1495,-1002 1495,-1002 1495,-1045.49 1506.41,-1066.91 1476,-1098 1450.52,-1124.04 1357.33,-1139.71 1290.26,-1147.86"/>
<polygon fill="black" stroke="black" points="1289.68,-1144.4 1280.16,-1149.05 1290.5,-1151.35 1289.68,-1144.4"/>
</g>
<!-- entertainment&#45;&gt;happiness -->
<g id="edge93" class="edge"><title>entertainment&#45;&gt;happiness</title>
<path fill="none" stroke="black" d="M1211.4,-217.495C1195.57,-207.459 1175.39,-194.662 1157.67,-183.424"/>
<polygon fill="black" stroke="black" points="1159.52,-180.451 1149.2,-178.052 1155.77,-186.363 1159.52,-180.451"/>
</g>
<!-- low_danger&#45;&gt;wall -->
<g id="edge127" class="edge"><title>low_danger&#45;&gt;wall</title>
<path fill="none" stroke="black" d="M620.719,-767.485C573.759,-761.112 510.431,-747.411 462,-718 346.786,-648.034 313.911,-614.398 262,-490 252.663,-467.625 251.475,-439.937 252.299,-419.537"/>
<polygon fill="black" stroke="black" points="255.807,-419.506 252.903,-409.317 248.819,-419.093 255.807,-419.506"/>
</g>
<!-- low_danger&#45;&gt;watch_tower -->
<g id="edge113" class="edge"><title>low_danger&#45;&gt;watch_tower</title>
<path fill="none" stroke="black" d="M629.208,-762.56C579.591,-752.446 512.394,-736.026 492,-718 444.475,-675.992 384.14,-490.067 362.334,-418.869"/>
<polygon fill="black" stroke="black" points="365.66,-417.777 359.403,-409.227 358.963,-419.813 365.66,-417.777"/>
</g>
<!-- low_danger&#45;&gt;way_post -->
<g id="edge125" class="edge"><title>low_danger&#45;&gt;way_post</title>
<path fill="none" stroke="black" d="M674.302,-754.687C667.485,-743.999 658.735,-730.249 651,-718 608.991,-651.479 595.757,-636.467 557,-568 527.584,-516.035 496.772,-453.358 479.919,-418.255"/>
<polygon fill="black" stroke="black" points="483.021,-416.629 475.549,-409.117 476.706,-419.649 483.021,-416.629"/>
</g>
<!-- low_danger&#45;&gt;trading_post -->
<g id="edge129" class="edge"><title>low_danger&#45;&gt;trading_post</title>
<path fill="none" stroke="black" d="M696.094,-754.579C700.676,-746.216 706.187,-736.159 711.223,-726.969"/>
<polygon fill="black" stroke="black" points="714.312,-728.614 716.048,-718.162 708.173,-725.25 714.312,-728.614"/>
</g>
<!-- low_danger&#45;&gt;pig_pen -->
<g id="edge115" class="edge"><title>low_danger&#45;&gt;pig_pen</title>
<path fill="none" stroke="black" d="M724.039,-757.606C744.044,-748.222 768.066,-734.793 786,-718 813.718,-692.045 821.35,-682.449 832,-646 837.235,-628.082 838.216,-621.601 832,-604 827.971,-592.593 820.584,-581.793 812.892,-572.723"/>
<polygon fill="black" stroke="black" points="815.426,-570.308 806.129,-565.227 810.229,-574.996 815.426,-570.308"/>
</g>
<!-- low_danger&#45;&gt;goat_pen -->
<g id="edge117" class="edge"><title>low_danger&#45;&gt;goat_pen</title>
<path fill="none" stroke="black" d="M730.513,-758.876C756.635,-749.468 789.592,-735.6 816,-718 895.242,-665.187 911.402,-643.835 969,-568 1003.27,-522.884 1038.1,-498.283 1012,-448 1007.27,-438.885 989.316,-425.865 971.512,-414.57"/>
<polygon fill="black" stroke="black" points="973.184,-411.489 962.842,-409.189 969.492,-417.436 973.184,-411.489"/>
</g>
<!-- low_danger&#45;&gt;chicken_shed -->
<g id="edge119" class="edge"><title>low_danger&#45;&gt;chicken_shed</title>
<path fill="none" stroke="black" d="M677.729,-754.259C666.281,-726.567 647,-672.829 647,-625 647,-625 647,-625 647,-547 647,-489.856 698.883,-442.031 736.326,-414.956"/>
<polygon fill="black" stroke="black" points="738.379,-417.791 744.544,-409.174 734.352,-412.065 738.379,-417.791"/>
</g>
<!-- low_danger&#45;&gt;shanty -->
<g id="edge123" class="edge"><title>low_danger&#45;&gt;shanty</title>
<path fill="none" stroke="black" d="M630.718,-762.06C587.448,-752.243 532.42,-736.548 519,-718 508.097,-702.93 453.225,-680.104 522,-448 525.175,-437.285 530.99,-426.633 537.034,-417.488"/>
<polygon fill="black" stroke="black" points="539.948,-419.428 542.819,-409.229 534.215,-415.411 539.948,-419.428"/>
</g>
<!-- low_danger&#45;&gt;house -->
<g id="edge121" class="edge"><title>low_danger&#45;&gt;house</title>
<path fill="none" stroke="black" d="M751.106,-767.418C841.801,-758.939 1001,-741.305 1054,-718 1100.57,-697.52 1116.26,-689.285 1143,-646 1187.96,-573.225 1197.06,-469.163 1198.74,-419.497"/>
<polygon fill="black" stroke="black" points="1202.25,-419.285 1199.01,-409.198 1195.25,-419.104 1202.25,-419.285"/>
</g>
<!-- low_danger&#45;&gt;field -->
<g id="edge131" class="edge"><title>low_danger&#45;&gt;field</title>
<path fill="none" stroke="black" d="M749.658,-766.396C808.239,-759.152 897.291,-745.187 981.151,-717.802"/>
<polygon fill="black" stroke="black" points="982.444,-721.061 990.822,-714.576 980.228,-714.42 982.444,-721.061"/>
</g>
<!-- low_danger&#45;&gt;garden -->
<g id="edge133" class="edge"><title>low_danger&#45;&gt;garden</title>
<path fill="none" stroke="black" d="M738.018,-761.083C780.601,-750.905 842.205,-735.212 895,-718 896.401,-717.543 897.822,-717.066 899.253,-716.575"/>
<polygon fill="black" stroke="black" points="900.524,-719.837 908.751,-713.161 898.156,-713.25 900.524,-719.837"/>
</g>
</g>
</svg>
